<svg xmlns="http://www.w3.org/2000/svg" width="1920" height="470" viewBox="0 0 1920 470">
  <defs>
    <style>
      .cls-1 {
        fill: #fff;
        fill-rule: evenodd;
      }
    </style>
  </defs>
  <path id="Fake_Data" data-name="Fake Data" class="cls-1" d="M215.073,57.128v3.149l6.1,6.3,6.1-6.3V57.128l-4.526-4.723H219.6ZM207.6,55.554l-1.574,1.574V58.7l1.574,1.574h1.575l1.377-1.574V57.128l-1.377-1.574H207.6ZM209.17,65L207.6,66.573v1.574l1.575,1.574h1.377l1.574-1.574V66.573L210.547,65H209.17Zm-10.626,4.723,1.574,1.574,2.952-3.148h-4.526v1.574Zm22.629,3.148h2.952l-2.952-3.148V72.87ZM78.116,82.315v1.377l1.377,1.574q-7.481,0-21.055,9.445l-1.574,7.871q-9.644,0-13.381,14.168l7.478,14.168,12-3.148q0,5.313,6.1,15.742l-1.574,4.526H62.964l-10.626-9.248v1.574l-1.377,1.574v128.5l7.477-1.575,1.574,6.3v1.574l-1.574,1.575q-7.48,0-7.477,3.148V345.8l1.377,1.575-1.377,1.574V352.1l1.377,1.574H50.961l2.952,3.149h1.574v-6.3h4.526V352.1l-1.574,6.3v1.574q6.1,0,6.1-6.3,4.524,0,4.526,7.871h1.377l9.052-3.148,7.674,1.574V356.82h2.952l1.574,4.722a21.645,21.645,0,0,1-13.578,4.723v4.723q9.639,0,16.529-7.871,0,6.3,2.952,6.3l-1.574,4.722v3.149H97.6v-3.149l4.526,1.574,9.052-4.722q2.753,14.167,6.1,14.168h1.377v-6.3h1.574l2.952,9.248-5.9,1.575v3.148h5.9v-3.148h3.148v1.574l-1.574,1.574,4.526,4.723h1.574L133.8,394.4h2.952v1.575H133.8L147.382,407h1.377l3.148-3.148V279.88h19.481l1.575-1.574,1.574,1.574h1.377l18.1-15.546V262.76l-7.478-1.574q-12,0-12-9.445l9.052-18.891q14.952-9.048,14.955-18.891h1.574v1.575l-3.149,15.742,4.526,20.465,10.626-6.3,15.152,4.723q2.952,12.594,5.9,12.593-4.132,13.974-7.478,13.971l2.952,3.149h45.258l2.952-3.149v-61.2l-2.952-3.149H252.854q-8.07,0-10.626,6.3-12,0-12-6.3H151.907V195.266q4.525,0,4.526-3.149V187.4q0-3.145-4.526-3.149V152.762h18.1l1.377-1.574,1.575,1.574h55.688v-4.723H231.6v4.723h37.782l7.477-7.871h1.574v1.574l-1.574,1.574v1.574l2.952,3.149h16.726l2.951-3.149v-12.4l-1.574-1.574,1.574-1.574V97.861l-2.951-3.148h-12.2l-4.526,4.723-73.792-3.148-9.052,6.3q-4.131,12.6-10.429,15.743l-2.951-3.149h-1.575l-1.574,1.574-4.526-3.148q0.393-8.067,7.675-17.316V94.712l-19.678-3.148-4.526,1.574q0-7.674-16.529-12.4Q127.7,84.874,127.7,89.99l-12-1.574,6.1-7.674-3.149-3.148h-1.377l-7.675,6.1v3.148l1.575,1.574h-2.952V89.99l4.526,11.019q-5.313,14.169-13.578,14.168-9.252,0-13.578-11.019,5.9-15.741,12-15.743,0,6.3,2.952,6.3h1.574l2.951-3.148q0-4.723-12-4.723l2.952-4.526V80.741q0-2.555-10.429-6.3-7.481,3.542-7.478,7.871h0ZM23.805,80.741v6.1l2.952,3.148h3.148l4.526-4.723V80.741l-4.526-4.723H28.331Zm31.681,4.526,4.526-1.574,4.526,3.148,2.952-3.148V82.315l-7.477-1.574H55.487v4.526Zm209.371,1.574h1.574V83.693h-1.574v3.148Zm16.529,4.723h2.952V88.416h-2.952v3.148Zm-254.63,6.3v1.574l1.574,1.574-1.574,1.574,3.148,3.149h12l2.952-3.149v-1.574A21.91,21.91,0,0,0,34.431,89.99H32.857q-3.145.789-6.1,7.871h0Zm168.835-3.148v1.574l2.952,3.148,2.951-3.148V94.712l-2.951-3.148Zm-51.359,7.871-4.526,7.872H138.33l-1.574-1.575,1.574-6.3h5.9Zm-64.74,15.743-5.9,3.148H70.442V119.9l1.574-1.574v-1.575q0-5.313-4.526-11.019,8.265,0,12,12.594h0Zm93.47-11.02v1.574h-2.952v-1.574h2.952Zm25.581,15.742,4.526,4.723-1.575,7.871h-5.9l-7.674-1.574v-3.149l3.148-7.871h7.478Zm73.791,6.3h1.574v4.723h-4.525v-1.574Zm-96.421,15.546v1.574h-4.526v-2.952l1.575-1.574ZM97.6,155.91v3.149H93.071v-4.723l1.574-1.574Zm22.629,1.574,2.952,3.149-2.952,4.722-2.951-3.148v-1.574ZM79.493,170.078v7.871q0,2.361-5.9,4.723,0-2.754-6.1-3.149v-1.574l2.952-9.445Zm-21.055,36.01q7.476,0,9.052,6.3l-2.952,7.871q-10.626-2.753-10.626-6.3v-3.148Zm46.636,6.3v4.723h-5.9v-1.574l1.378-7.871Zm-14.955,0v1.574l-2.952,3.149H85.594v-4.723h4.526Zm28.533,11.02v4.722l-7.477,6.3-4.526-6.3,2.951-7.871ZM245.18,237.573v6.3h-2.952l-1.574-1.575,1.574-4.722h2.952ZM133.8,239.147h2.952l4.525,4.723-4.525,4.722H132.23l-4.526-3.148Zm-24.2,12.594v3.148h-2.951Zm162.735,0v4.722h-4.526l1.575-4.722h2.951ZM97.6,262.76l1.574-1.574q2.163-6.3,4.526-6.3v10.823l-4.526,1.574-3.148-4.526H97.6Zm-21.055-6.3,1.574,1.575-3.148,3.148H73.59v-3.148l1.377-1.575h1.574Zm188.316,3.149h1.574v3.148l-1.574,1.574h-1.575l-1.377-1.574ZM97.6,270.435l1.574-1.575h1.378l1.574,1.575q0,6.3,2.951,6.3L103.7,268.86v-1.574h4.526v1.574l-1.574,1.575v1.574l6.1,7.871q-6.1,0-6.1,3.148V284.6H109.6q6.1,18.89,12.2,18.89-5.9,7.084-6.1,14.168h-2.951l-1.574-1.574,1.574-11.02v-1.574H109.6q-0.987-17.313-7.477-17.316,0-7.869-2.952-7.871v-1.575l1.378-1.574q-2.952,0-2.952-4.722H94.645v-3.149Zm45.259,3.148v4.723h-1.575l-2.951-3.149v-1.574h4.526Zm-52.737,3.148v11.02H87.168l-1.574-9.445Zm24.007,4.723,6.1,4.723v1.574q-6.889-2.952-7.477-6.3h1.377ZM91.694,294.048v4.723H88.545V297.2Zm55.688,0v1.574h-3.149v-1.574h3.149ZM81.068,309.79q0,6.3,4.526,6.3v1.574l-1.574,1.574-4.526-1.574-4.526,3.149-2.952-3.149q0-3.735,7.477-4.723V309.79h1.574Zm42.11,1.574,6.1,4.723-4.526,4.723-6.1-3.149v-4.723Zm21.055,1.574v4.723h-2.952v-1.574Zm-55.688,6.3v4.723H85.594v-4.723h2.952Zm34.633,10.823v3.149H121.8v-3.149h1.377Zm-16.529,4.723H109.6q8.459,0,15.152,9.445V345.8l-1.574,1.575v1.574l1.574,1.574q-2.952,0-2.951,4.723-15.156,5.9-15.152,9.445H103.7l-1.574-1.574v-1.575l1.574-1.574L93.071,356.82q0-3.145,4.526-3.149l-2.952-4.722v-1.574q5.9-9.839,12-12.594h0Zm-31.681,3.148V339.5l1.574,1.575-6.1,4.722-1.377-1.574q1.374-5.115,5.9-6.3h0Zm-14.955,3.149v3.148H56.864Zm34.633,0v1.574q-3.542,11.022-6.1,11.019,0-4.722-4.526-4.722V345.8l1.574-1.574q7.476,0,7.477-3.148h1.574Zm-27.155,6.3,2.952,3.148V352.1l-5.9-1.574Zm18.1,4.722,1.574,1.574v1.575l-1.574,1.574-2.952-3.149V352.1h2.952Zm-24.2,12.594h7.674l-3.148-3.149H61.39v3.149Zm37.781-1.574v3.148H96.023ZM73.59,366.265v1.574h1.377l3.148-3.148v-1.574H76.542Zm30.107,3.149v1.574h-3.148v-1.574H103.7Zm42.11,6.3-2.951,3.149V375.71h2.951ZM50.961,394.4q0,7.874,4.526,7.871V407q0,3.15-4.526,3.148v6.3l1.377,1.575,1.574-1.575,4.526,1.575,4.526-1.575,9.052,1.575h9.052l2.952-3.149q-2.952,0-2.952-6.3-7.48-3.145-7.477-6.3H70.442q0,4.724-5.9,7.871,0-4.722-3.148-4.722v-3.149h3.148l1.377,1.575v-1.575q6.1,0,6.1-4.722l-6.1-4.723H64.538L62.964,394.4V392.83l-1.574-1.574q-5.9,0-5.9-3.149H52.338Zm9.052,0v1.575H56.864V394.4h3.149Zm27.155,14.168,7.478,1.574q0,3.15-4.526,3.149v1.574l2.952,3.149H97.6l4.526-3.149q0-5.507-9.052-12.594Zm19.481,6.3,2.951,3.149h18.1v-3.149l-5.9-1.574v1.574l-7.675-3.148h-1.377l-1.574,1.574-2.952-3.149h-1.574v4.723ZM406.931,214.55l-1.181,1.18v1.181l1.181,1.181h0.984l1.18-1.181V215.73l-1.18-1.18h-0.984Zm34.829,13.184v1.181l0.984,1.18,2.165-2.361v-1.378l-0.984-1.18Zm-65.526,3.542-3.149-1.181h-1.18l-0.984,1.181L366.4,230.1l-2.165,2.362q-5.313,0-5.313,2.361h-1.18l-0.984-1.181h-2.165l0.984,3.542v1.181L351.243,236l-1.181,1.18v-2.361L339.24,238.36q-29.517,19.287-29.517,45.259,0,2.757,18.694,3.542,0-4.724,2.164-4.723h0.984v1.181l-0.984,1.18q0,4.331,40.34,7.084,0.983-8.458,19.481-24.99l3.345,3.542q12,0,12-7.084l12,4.722q9.837,12.6,9.839,22.63l-1.181,3.542,2.164,2.361-2.164,2.361q-2.167,0-2.165-3.542-5.9,0-24.007,8.462v1.18l1.181,1.181,3.149-1.181q3.344,0,4.525,4.723l-2.164,2.361-4.526-1.18-3.148,3.542v1.18l0.983,1.181q-7.674,0-17.316,10.626h-5.51q-4.132-17.711-7.674-17.71,0,4.722-2.165,4.723h-2.164l-1.181-3.542q-18.5,3.938-18.5,5.9-6.493,0-6.493,7.084h-2.165l-1.181-4.723-7.477,3.542-3.345-1.18-1.181,1.18,1.181,1.181q-21.843,17.317-21.843,45.259,0,15.546,9.839,29.713h2.165l1.18-1.18q0-3.543,2.165-3.542h0.984q2.163,0,2.164,4.722l32.862,9.642,3.149-2.361v-2.558h1.18v2.558h4.329l5.51-1.378q2.163,3.741,5.313,3.739v1.181l-6.494,2.361q0,3.543,26.172,5.9,5.507,0,7.674-5.9l3.149,3.542q7.083-.983,25.187-17.906h2.165q0,15.938,14.168,20.268h52.342q-6.494-20.856-6.493-28.533V372.759l-1.181-11.807,1.181-7.281v-1.18l-1.181-1.181h1.181l-1.181-12.987,1.181-3.542-1.181-1.181,1.181-1.181v-1.18l-1.181-1.181,1.181-1.377V327.5l-2.165-3.542v-1.181l2.165-2.361-1.181-1.181,1.181-1.18-1.181-3.542v-1.181l1.181-1.181q0-3.541-2.165-3.542l0.984-6.1v-7.084q0-22.626-5.313-22.629l0.984-3.542-5.51-14.168h-3.148l-2.165,2.361v2.362l0.984,1.18h1.181l0.984-1.18h1.18l0.984,1.18-2.164,2.362h-0.984l-1.181-1.181v3.542l1.181,1.181-2.165,2.361h-1.18q-2.169-14.167-10.823-14.168v1.181l2.164,3.542v1.18l-2.164,2.362q-4.33-1.965-4.329-7.084h-1.181l-1.181,1.18v-2.361h2.362l0.984,1.181,2.164-8.462-6.494-2.361h-1.18l-0.984,1.181q-0.591-2.754-8.855-5.9h-0.984l-1.181,1.181q-4.131-4.724-8.658-5.9H433.1l-1.18,1.18-4.329-3.542L425.428,236h-1.181l-0.984-1.181h-1.18L421.1,236l0.984,1.18-0.984,7.084,2.164,4.723H421.1q0-4.326-4.526-7.084h-6.494q0-4.724-3.148-4.723v2.362l-1.181-1.181h-1.18l-0.984,1.181H400.24V238.36L402.405,236h2.165v-5.9l-2.165-2.361H400.24q0,5.313-7.674,10.626-3.15,0-3.148-2.361h4.329v-1.181q-2.56,0-7.674-5.9l-2.165,2.361v1.181h3.345v1.18l-1.18,1.181-2.165-2.361-0.984,1.18H380.76v-1.18h2.164v-1.181l-2.164-3.542q-4.53,1.771-4.526,3.542h0Zm17.513-2.361,2.164,2.361,2.165-2.361v-1.181h-4.329v1.181Zm51.162,2.361h2.361v-2.361h-2.361v2.361Zm-65.33,1.181-2.165,4.722H375.25L369.74,236l-0.984,1.18v-2.361h7.478v-2.361h3.345Zm41.52,1.18h2.164v-2.361h-4.525Zm-6.691,1.181h2.165v-2.361Zm-32.665,0v2.361H380.76v-2.361h0.983Zm6.494,0v2.361h-0.984v-2.361h0.984ZM399.257,236v2.361h-2.165Zm38.174,4.722v2.362h-1.18v-2.362h1.18Zm-5.509,2.362v2.361h-1.181v-2.361h1.181Zm7.674,1.18v1.181h-4.329v-1.181H439.6Zm-74.185,2.362h2.164l2.165,2.361v3.542l-3.345,1.377-3.149-3.738v-1.181Zm-15.349,1.18v2.362l-2.164,2.361-2.165-2.361v-2.362h4.329Zm-10.822,1.181v1.181h-2.165v-1.181h2.165Zm-8.659,2.361,2.165,2.558v2.362l-1.181,1.18-3.148-1.18v-2.362Zm88.157,1.181v1.377h-2.165v-1.377h2.165Zm-19.481,1.377,5.313,2.362v1.18q0,5.9-4.33,7.084-5.313-.783-5.313-3.542v-3.542Zm50.178,2.362,0.984-1.181h1.18l0.984,3.542v1.181h-3.148l-1.181-3.542h1.181ZM359.9,259.809v5.9l-3.148,1.181q-3.348,0-3.346-2.362V262.17l2.165-3.542Zm66.511,2.361h2.164v3.542l-0.983,1.181-3.346-2.362Zm-63.166,2.361h0.984l5.51,1.181v5.9l-3.345,3.542H364.23l-4.329-3.542q1.18-7.083,3.345-7.084h0Zm97.012,1.181v3.542h-3.346v-3.542h3.346Zm19.677,1.181,2.165,2.361v2.361l-5.51-1.18Zm-96.027,3.542-2.165,2.361h-2.164v-3.542l1.181-1.181Zm54.507,2.361h2.165v3.542l-0.984,1.181-3.345-1.181v-1.181Zm-95.83,1.181,2.164,2.361v3.739l-3.345,1.18-3.345-4.919h1.181v-2.361h3.345Zm138.334,0q0,6.1,4.526,6.1l-2.361,4.722h-3.149l-5.509,1.181-3.346-3.542,1.181-3.542q5.507,0,5.51-4.919h3.148Zm-42.5,6.1,1.181,1.18v1.181l-1.181,1.181-2.164-2.362v-1.18h2.164Zm-92.682,1.18h1.181l2.164,2.362v3.542h-3.345l-2.164-2.362v-1.18Zm103.7,2.362h9.839q11.806,1.577,11.806,9.445l6.691,2.361-2.165,4.723q-7.674,0-7.674,6.1l4.329,2.361-1.181,5.9h-3.148l-2.165-2.362V309.79h-1.18L451.6,320.416h-3.345q-5.511-2.163-6.494-22.629l0.984-1.181-4.329-4.723v-2.361l1.181-1.181,3.148,1.181L441.76,290.7v1.18l0.984,1.181Zm36.994,2.361v1.181q-2.361,7.083-8.658,7.084l4.329-8.265h4.329Zm2.165,11.807h-2.165v-2.362Zm-139.516,3.542v1.18l2.165,2.558,2.164-2.558v-1.18l-2.164-2.362Zm140.7,0v3.738H487.61q0,7.085-4.526,8.265H482.1l0.984-8.265q3.344,0,3.345-3.738h3.345Zm-176.706,6.1h3.345v-1.181l-2.361-2.361h-0.984v3.542Zm-20.662,0v2.361l2.165,3.542,0.984-1.181h1.181l0.983,1.181h2.165l2.361-2.361V309.79q0-1.965-7.674-4.723Zm111.18,10.626h0.984l1.18,1.18-1.18,5.9h-2.165l-2.165-2.362V321.6Zm24.99,2.361h3.346v3.542h-5.51v-1.181Zm9.839,0L439.6,321.6l-2.165,2.361h-1.18V321.6l1.18-1.181h0.984ZM393.747,321.6l2.164,2.361v2.361l-3.345,1.181v-1.181l-0.984-1.18V321.6h2.165Zm90.517,1.18h2.165v1.181l-2.165,4.723h-3.345v-2.362Zm-123.182,3.542,2.164,2.362v2.558h-2.164l-2.165-2.558v-2.362h2.165Zm98.192,10.823q-4.53.591-4.526,3.542v1.181l1.18,1.18h-1.18q-6.493-2.951-6.494-10.626,1.573,0,3.345-4.919,4.917,0,7.675,9.642h0Zm-89.534-8.461v2.558l-0.984,1.18-2.361-2.361v-1.377h3.345Zm34.83,0,1.18,7.28q8.067,0,19.678-7.28h2.165v24.99l2.164,3.739v2.361h-3.345l-0.984-1.18q-11.415,26.172-41.52,26.171l-9.839-8.461-8.658,3.739v-1.378l-1.181-1.181,6.691-3.542-2.165-10.626,0.984-1.18v-2.362h-0.984l-4.526,3.542h-3.148l-3.345-2.361,2.164-7.281q5.9,0,8.855-3.542l5.313,1.181,6.691-5.9q20.07-6.687,21.645-9.446v-1.18l-2.165-2.362,1.181-3.738h3.149Zm-67.495,6.1h2.165q9.837,1.969,9.838,4.722v1.181l-2.164,3.542-1.181-1.181-5.51,1.181q-3.541,0-5.313-5.9,0-3.543,2.165-3.542h0Zm26.171,2.361h2.165l2.164,2.361-3.345,9.446-5.313-5.9v-1.18Zm112.36,9.445h-1.18l-0.984,1.181H471.08l-3.148-2.361,2.164-5.9q4.326,0,5.51,7.084h0Zm-122.2-1.18,2.165,2.361-2.165,2.361h-3.345v-4.722h3.345Zm81.86,1.18h2.164v3.542h-3.345l-0.984-1.18Zm10.823,3.542-2.165,2.362v-2.362h2.165Zm31.681,4.92q4.916,4.722,7.674,4.722v2.362l-7.674,7.084h-5.51q-1.97,0-3.345-5.9h-0.984l-1.181,1.181h-2.164v-2.361q8.855-7.084,13.184-7.084h0Zm-43.685,1.18v2.362h-2.164v-2.362h2.164Zm-122.2,2.362h2.165v3.542l-0.984,1.18-3.345-1.18v-1.181Zm128.693,1.18v2.362h-2.165v-2.362h2.165Zm-151.519,5.9,1.181,1.18,2.164-2.361v-1.181h-3.345v2.362Zm53.524,1.18h2.164l2.165,2.362v1.18l-2.165,3.542q-4.529-1.77-4.526-3.542v-1.18Zm-17.513,1.181,2.164,2.361v1.181h-4.329v-3.542h2.165Zm136.366,0,0.984,1.181-2.164,2.361h-2.165v-3.542h3.345Zm-145.025,1.181v1.18h-2.361v-1.18h2.361Zm118.854,0,0.984,1.18-3.149,3.542h-1.18V370.4Zm7.477,1.18v1.181l-0.984,1.181L439.6,370.4h3.148Zm24.007,1.181v1.181l-2.164,2.361H463.6v-3.542h3.148Zm23.023,7.084-3.345,3.739v-4.92l1.181-1.18ZM332.746,380.04h2.164l2.165,2.361v3.542l-4.329,1.181-2.165-3.542V382.4ZM359.9,382.4v2.361h-2.164Zm12,0,1.18,1.181-1.18,3.542v1.18l7.674-4.722h1.181v2.361q-8.856,2.759-8.855,5.9h-0.984l-1.181-1.18q-2.168,0-2.165,3.542h-2.164v-3.542l-3.345,1.18v2.362l1.18,1.18-1.18,1.181v1.181l1.18,1.18q-1.969,0-2.164,4.723H359.9v-3.542h-3.148l-1.181,1.181,2.165-8.265-0.984-3.542h6.493Zm-24.991,5.9h-2.165v-2.361Zm124.166-1.18h1.181v2.361l-1.181,1.181H470.1l-1.18-1.181ZM354.588,388.3v2.362h-2.361Zm106.85,2.362v2.361l-2.164,2.361v-2.361Zm-53.523,11.806h1.18v1.181l-8.855,2.558h-2.164v-1.378Zm-10.823,1.181v3.739h-2.165v-3.739h2.165Zm15.152,0v2.558H411.26v-2.558h0.984Zm-34.83,1.18v2.559h-1.18v-2.559h1.18Zm12.988,1.378v2.361h-0.984v-2.361H390.4Zm86.188,0v2.361l-2.164-2.361h2.164Zm1.181,3.542,3.148,2.361-0.984,3.542h-4.329v-3.542Zm6.493,0v2.361l-2.164-2.361h2.164Zm36.207-238.888v2.165q1.965,4.529,5.117,4.526V180.9l-2.165,3.345v6.691l0.984,5.509h3.148l2.952-10.035q4.133,1.77,4.132,3.345,0,8.265-3.148,8.855-2.952,0-2.952,4.526l-2.951-2.165-2.165,2.165v17.906l2.165,3.346h0.984l0.983-1.181q0-3.343,1.968-3.345h0.984v1.18l-1.968,2.165q4.132,8.855,6.1,8.855l-4.132,5.51-2.952-2.165v-1.18l0.984-.984-4.132-3.346h-0.984v22.236l-1.968,3.345v3.346l1.968,3.345v13.381h2.165l2.951-2.362-0.984-7.674,1.968-5.51,6.1,5.51V266.7l-2.951,4.329v2.164q0,1.969,5.9,4.526h0.984l1.181-1.18h0.983v1.18q-5.118,0-9.051,10.036v1.181l-8.265-3.346q-4.922,2.56-4.919,5.51l2.951,3.345h1.968l2.165-2.164h0.983l0.984,0.984-0.984,1.18,1.968,8.855-0.984,1.181v2.165a13.7,13.7,0,0,1,2.952,7.871v2.164l-4.919-1.18q-3.15,0-3.149,2.361v0.984l3.149,3.345-2.165,3.345v2.362q3.145,0,4.132,4.329v1.18l-0.984,1.181,3.936,7.674q-0.591,10.037-2.952,10.036h-0.984l-1.967-2.165-2.165,2.165v6.69l0.984,1.181q-2.952,0-2.952,2.165v2.164q8.067,1.18,8.068,3.345,5.115,0,5.116,5.707-1.77,11.022-11.216,11.019v7.872q3.344,0,7.084,11.019v1.181l-0.984,1.18,9.052,4.329h2.165l0.983-.983,1.968,2.164h13.184l-0.984-5.51h3.936l-0.984,5.51h24.2l2.164-2.164V366.855q15.349-18.494,23.22-24.6l12,27.943H622.6l1.968-2.362,0.984,1.181,5.116-1.181,2.951,6.691v2.361q-0.788,3.348-7.084,5.51l7.084,16.726,4.133-1.181,2.951,2.165h0.984q0-3.145,6.1-3.149l2.952,0.984,3.148-.984v0.984h1.968q-12.987,10.234-13.184,12.2v1.181h8.068v-3.345l-0.984-1.181,0.984-.984,5.116,5.51,1.968-2.164,3.148,2.164h15.152l0.984-1.181q0-5.507-1.968-5.509h-0.983l0.983-3.345v-1.181l-0.983-.984,0.983-3.345,0.984,1.18,10.036-4.525-0.984-1.181v-2.165h0.984v2.165h2.165l3.935-3.345,2.952,2.361v-2.361l-44.472-82.253-5.9,3.345q-6.891,0-9.249-7.871,3.145-11.217,10.233-11.216h2.951l4.133,3.345,50.571-54.508v-1.18h-9.248l-1.968,2.361-6.1-2.361h-0.984l-1.968,2.361-3.148-2.361H638.735l-0.984,1.18,0.984,11.217q0,4.331-7.084,6.69l-5.117-2.361-0.983,1.18,0.983,8.855q-3.15,11.217-8.067,11.217l1.967,2.164-0.984,5.51-2.951-.984-5.116.984-5.117-.984v-1.18l1.181-1.181v-3.345l-1.181-.984q5.115-8.656,5.117-12.2l-1.968-2.362h-7.084l-0.984,1.181,3.935,5.51v1.18l-10.035,13.381-5.116-1.18H586.2l-0.984,1.18V256.66l-5.116-9.052h-2.952q0,5.71-5.116,5.707h-1.968l1.968-4.526q-1.969-5.115-4.132-5.51h-0.984q-1.97.4-3.936,5.51l0.984,3.345-7.084-1.18v-4.329q9.05-7.476,9.052-10.036h0.984l0.984,0.984q10.819-11.019,13.184-11.02v-1.18q0-2.163-2.952-2.165v-2.165q0-1.964,7.084-7.871v-31.09q0-3.345-10.232-3.346v-1.18l7.084-1.181h3.148V174.21l-2.164-2.164h-1.968l-0.984.984-0.984-.984h-1.968l-1.18.984-0.984-.984q-7.085,3.542-7.084,5.51h-1.968l1.968-2.165-1.968-3.345q-7.085,4.922-7.084,8.855-9.054-1.18-9.052-3.345l-3.148,3.345q-12.793-7.868-18.1-7.871,0-5.506-4.132-5.51Zm15.152,7.871v3.346l-1.967,2.164h-0.984l-2.165-2.164v-3.346l0.984-1.18Zm2.952,0V180.9h-1.968Zm4.132,2.165v2.164h-0.984V180.9h0.984Zm3.936,3.345v1.181h-2.952v-1.181h2.952Zm-5.9,8.855h-2.165v-2.164Zm-2.165,4.526v0.984l-1.968,2.361h-0.984v-3.345h2.952Zm31.484,0,1.968,2.165v1.18l-1.968,2.165-2.164-2.165v-1.18Zm-59.623,5.51v1.18l3.935,5.51H518.5l2.951-3.345v-4.526q0-2.163-6.1-4.329Zm43.291-3.345h2.164l1.968,2.164V205.3l-1.968,2.362h-2.164l-2.952-3.346v-1.18Zm-9.052,2.164-1.968,2.361v-2.361h1.968Zm35.42,2.361,1.968,3.346-2.952,2.164-1.968-2.164V205.3Zm-14.168.984v1.181h-1.968V205.3h1.968Zm-29.32,5.707-5.116,7.674q-4.529,0-7.084-7.674,3.145,0,5.116-4.526Zm13.184-4.526h0.984l-0.984,1.181v0.983l0.984,1.181,0.984-1.181,1.968,2.362v2.164l-4.92,1.181q-3.15,0-3.148-2.361v-0.984Zm23.22,3.345,2.952,3.345v2.165l-2.952,3.345h-0.984l-3.148-3.345v-2.165Zm-9.052,7.871,1.968,2.165-1.968,2.164h-0.984V217.7h0.984Zm-27.352,6.691v2.164h-1.968Zm16.136,2.164,0.984,1.181-0.984,3.148h-3.936v-4.329h3.936Zm4.132,8.855,1.968,2.165v1.18l-1.968,4.526h-4.132l-0.984-3.345Zm-23.219,4.526q0,3.348,3.935,3.345v0.984l-0.984,1.181,4.133,6.69q-0.4,2.561-9.249,5.51l-3.936-4.329q0-13.38,6.1-13.381h0Zm8.067,4.329v2.362H540.74v-2.362h0.983Zm79.892,4.526v1.181h2.952l1.967-2.362v-3.345h-0.983Zm-9.249,4.526q0.591,4.33,3.149,4.329h1.968l2.951-3.345v-3.345l-2.951-3.346H616.5q-2.168.591-4.133,5.707h0ZM646.8,249.97l1.968,2.164v1.181l-1.968,2.164-1.967-2.164v-1.181Zm21.252,4.329v1.18l0.984,1.181v3.345h-1.967l-2.165-2.361v-2.165Zm-17.316,2.361h1.181l0.984,3.345h-0.984l-1.181.984H648.77v-2.164ZM640.7,258.825q1.573,0,3.149,4.526l-1.181.983,3.149,3.346-4.133,3.345H640.7q0-5.115-1.967-7.674v-2.362Zm-98.979,3.345,2.952,2.164-2.952,3.346h-2.164v-5.51h2.164Zm21.252,2.164,1.968,2.362v2.164h-4.132V266.7Zm-13.184,1.181v2.165l-1.968-2.165h1.968Zm28.336,7.674v1.181l-2.164,2.165v-3.346h2.164ZM628.5,274.37h2.165l2.951,4.526-7.084,4.329h-1.967l-1.968-2.164V279.88Zm27.352,1.181,1.968,2.164v2.165h-1.968l-1.968-2.165Zm-78.711,4.329H580.1l0.984,1.181Q585.6,291.1,590.131,291.1v1.181q-4.921.2-4.92,3.345v0.984l1.968,10.036,8.068-4.33q3.344,3.35,9.052,3.346,1.181,8.854,4.132,8.855l-3.149,8.855q-4.92,0-4.919,2.164v1.181q4.917,0,4.919,3.345l-1.967,2.165q-2.952,0-2.952-3.346h-0.984l-2.164,2.362v5.51l0.983,1.18-9.051,10.036,0.984,0.984v1.18l-0.984,1.181-5.116-1.181q-1.969,0-1.968,3.346-8.856-1.181-11.02-3.346-2.361-13.379-6.1-13.38V333.4q0-1.964,6.1-3.345A11.519,11.519,0,0,1,574,322.187l-1.968-3.345v-0.984l2.952-4.526v-0.984q-4.922,0-4.92-5.706v-2.165l1.968-3.345h0.984l0.984,1.18,4.132-4.525-3.148-3.346v-1.18l0.984-.984v-3.345q-2.362,0-2.952-4.526ZM506.3,294.441h1.968v-2.164H506.3v2.164Zm25.188,2.165,1.181,3.345h-3.149v-0.984Zm85.008,2.361v2.165h-1.968l-1.181-1.181,1.181-3.345Zm-21.252,6.691-0.984.984v1.18L595.247,309h0.984l0.984-1.181v-1.18l-0.984-.984h-0.984Zm39.355,0.984v3.345h-2.951l0.984-3.345H634.6Zm-92.879,3.345v1.18h-2.164v-3.345Zm38.372,2.361V315.5h0.984l2.952-3.149v-1.181Zm8.068,2.165-0.984.984,1.968,2.361,3.148-3.345h-4.132Zm-79.892,2.164-0.984,1.181,1.968,2.164h1.181l0.984-1.18-2.165-2.165h-0.984Zm39.552,5.51v3.345h-1.18l-1.968-2.164v-1.181h3.148Zm31.288,7.871v1.181l1.968,2.164h0.984l5.116-5.509-1.968-2.362h-1.18Zm-64.74,0v1.181l1.968,2.164H518.5l1.967-2.164v-1.181l-1.967-2.164h-2.165Zm75.76,0-0.984,1.181,3.148,3.345,1.968-2.361-1.968-2.165h-2.164Zm-27.156,2.165v3.345l-2.164-2.165v-1.18h2.164Zm-20.268,2.361v0.984H540.74v-0.984h1.967Zm28.336,0.984,1.968,2.361H574l1.968-2.361L574,333.4h-0.984Zm-20.268,1.181v1.18h-1.968v-1.18h1.968Zm32.272,4.525v0.984l7.084-.984v-3.345q-7.084.591-7.084,3.345h0Zm-81.86,2.165v1.181l2.165,2.164h0.984l1.967-2.164v-1.181l-1.967-2.165h-0.984Zm62.772,1.181v2.164l-3.148,1.181h-0.984V344.62h4.132Zm-10.232.984v1.18h-1.968V345.6h1.968ZM505.32,351.31l1.967,2.165h0.984l2.165-2.165v-1.181l-2.165-2.164Zm29.319-2.361,3.936,3.345v1.181l-0.984,1.18-6.1-1.18v-1.181Zm14.168,1.18v3.346h-2.164v-1.181Zm24.2,5.51v5.51l-2.952,1.181-3.148-1.181,1.968-6.494Zm8.068,5.51h0.984v2.361l-0.984.984H580.1l-0.984-.984ZM659,363.51l2.951-1.18q2.754,0,7.084,8.855v6.69l-1.967,4.526-0.984-1.181-4.133,3.345q0-10.035-1.967-10.035l0.983-3.345,0.984,1.18,1.968-2.164-1.968-2.362H659l-1.181,3.346,1.181,1.18v1.181q0,2.167-3.149,2.164H654.87l0.984,3.346L654.87,382.4H652.9l-2.165-2.165h-0.984l-0.984.984h-3.935v-4.329l4.919-2.361v-0.984l-0.984-1.181V370.2l0.984-1.181,3.149,2.165,3.935-10.036Zm-124.364-1.18v2.164h-0.983V362.33h0.983Zm134.4,1.18v0.984h-1.967V363.51h1.967Zm1.968,4.329v1.181h-1.968v-1.181h1.968Zm9.052,1.181v2.165q-2.361,0-7.084,6.69v1.181l1.181,1.18H671.99v-3.345q0-4.326,4.132-9.052Zm-123.183,0,1.968,2.165v3.345l-2.952,1.18-3.148-4.525h0.984V369.02h3.148Zm-57.656,2.165,6.1,4.525q-0.982-6.687-3.149-6.69h-0.984Zm179.855,3.345-1.968,2.361V374.53h1.968Zm-119.247,1.18h0.984l2.164,2.165v3.345h-3.148l-1.968-2.164v-1.181Zm-33.255,0-0.984,1.181,1.967,2.165h0.984V375.71h-1.967Zm-23.22,3.346v1.18l1.968,2.165,1.967-2.165v-1.18l-1.967-2.165Zm64.543,0v2.164h-1.968v-2.164H567.9Zm14.168,2.164v2.362H580.1ZM659,385.746l2.951,3.345v2.165L659,394.6l0.984-3.345v-0.984h-2.165v-1.181l1.181-1.18v-0.984h-2.165V382.4q2.163,0,2.165,3.345h0ZM671.99,382.4l-0.984,4.526h-0.984l-0.984-3.345V382.4h2.952Zm3.148,0v2.164h-0.983V382.4h0.983Zm-25.384,1.181v2.164H648.77v-2.164h0.984Zm-70.643,5.509v2.165l-1.968,2.361h-1.18L574,391.256v-2.165l0.984-1.18Zm93.863,11.02-2.952,3.345h-3.935l-1.181-.984q-1.379-4.524-2.952-4.526l0.984-4.329,4.133,3.345q1.963,0,1.967-4.525ZM522.439,394.6v-2.164h-1.968Zm121.412-.984v2.165H642.67v-2.165h1.181Zm30.3,0v2.165h-1.181v-2.165h1.181Zm-124.364.984-1.968,2.361V394.6h1.968Zm143.451,3.345-10.036-.984-7.084.984,2.952,5.51v1.181l-0.984,1.18q2.361,0,3.149,5.51h19.087l0.984-1.181v1.181l2.164-2.164v-3.346q0-6.3-7.084-12.2-2.559,0-3.148,4.329h0Zm-138.335-2.164,3.936,6.69v0.984l-0.984,1.181-6.1-3.345v-4.33Zm-37.584,2.164,1.181,1.181,1.967-2.165v-1.18h-3.148v2.164Zm15.349-.984,0.984,3.149v1.181h-2.165v-4.33h1.181Zm47.423,5.51,1.968,2.165L580.1,406.8h-1.968v-2.164Zm108.228,2.165v1.18h-2.165v-1.18h2.165Zm-19.285,1.18v2.165h-0.984v-2.165h0.984Zm28.336,2.165v2.164H696.39v-2.164h0.984Zm9.052,3.345v-2.164h-1.968Zm-177.887,4.526,1.968,2.165,2.165-2.165v-2.361h-2.165ZM757.588,216.124l-0.984,1.181v0.984l0.984,1.18h1.181l0.984-1.18v-0.984l-0.984-1.181h-1.181Zm8.855,5.51h2.165l-2.165-2.165v2.165Zm47.62,2.164-1.18-.984q-5.711,0-19.875,5.51-31.486,9.643-62.969,46.243v2.164H732.2v1.181l-1.181,1.181,4.526,6.493-6.69,5.51h-3.346l-3.345-2.164q-2.757,0-7.674,19.874l1.181,1.181,6.493-3.345-0.984-7.871q0-4.917,9.839-6.494-0.789,8.463-4.329,12.2v2.165q0,3.348,9.839,3.345v0.984l-6.494,3.345q-4.132,13.185-8.855,13.184l2.165,8.855-1.181,1.181V339.7q3.344,3.939,3.345,7.675v1.18L720,355.049l1.18,3.345q0,7.48,16.53,8.855l-1.181,1.181q0,3.15,24.4,31.878l3.346-2.165-1.181,5.51,4.526,1.18q7.083-4.524,12.2-4.525,5.9,0,7.674,4.525v5.51h1.181q6.1,0,8.658,6.494,15.543-20.071,15.546-23.023h1.18V394.8l-10.035,18.89v3.149l1.18,1.181q7.476,0,9.839-7.675h1.181l1.18,0.984h0.984l3.346-2.164-6.691-8.855,8.855-6.494q0,2.167,5.51,2.165,0,4.33,2.361,4.329l-1.18,1.18,1.18,5.51h2.165l1.18-1.181L836.1,407h2.165l4.526-4.329q0-1.771-4.526-3.345l-4.329.984h-1.181l-0.984-.984,0.984-5.51h-4.329v-2.361h2.165v-0.984l-4.33-8.855,0.984-1.181-0.984-6.494,2.165-3.345q0-3.344-17.71-5.51h-1.181l-0.984.984q0-2.163-12.2-14.168v-1.18q4.133,0,17.71-12.2,12.2-4.917,12.2-12l4.33,0.984,51.949-36.4-0.984-.984v-1.18l0.984-1.181,3.345,1.181,3.345-2.165-5.51-14.365,2.165-3.345,10.036,6.691-4.526,6.493v1.181q6.3,0,7.674-5.51h2.361q-1.77-11.806-16.726-26.565l-2.164,2.361q-4.331-.783-4.329-7.871Q855.581,223.8,837.283,223.8H836.1l1.181,5.51v2.165l-5.51,6.69,2.165,3.345-2.165,2.165h-1.18l-3.346-3.345v-2.165q0-2.163,4.526-2.164v-1.181l-4.526-6.494,2.165-5.51-4.329-1.18Zm0.984,2.165v3.345l-2.164,2.165h-3.346l-2.164-2.165v-0.984l2.164-3.345Zm34.436,3.345v1.181h-2.361v-1.181h2.361Zm-44.275,4.526L807.373,236v1.18l-2.165,2.165h-1.18l-2.165-2.165Zm-68.675,4.329v3.345l5.51,5.51H744.4a11.715,11.715,0,0,0,5.51-6.69q0-3.344-5.51-6.494h-3.345Zm119.444-3.345,5.51,1.181h1.18l1.181-1.181V236l7.674,14.364q0,11.217-10.035,16.53v-1.181l-5.51,1.181a33.136,33.136,0,0,1-13.184-14.365v-1.181q2.163-16.529,13.184-16.529h0Zm1.18,16.529v2.361h1.181l2.165-2.361v-0.984l-1.181-1.18Zm-96.224,0,2.165,2.361-2.165,2.165h-1.18v-4.526h1.18Zm13.184,15.546h2.362v3.345l-1.181.984-3.345-2.165Zm-12,5.509v3.346l-3.345.983v-0.983q-7.874,0-7.871-3.346v-1.18l2.361-3.149q8.855,2.168,8.855,4.329h0Zm67.3-3.345h1.181q0,3.348,2.164,3.345-1.576,4.33-3.345,4.329-1.578,0-3.149-4.329Zm-58.443,30.894q0-22.433,28.729-28.729h3.346q11.409,0,27.549,16.529-2.56,3.939-44.275,30.894v3.345l1.18,1.181h-1.18l-0.984.984h-1.181V321.99h-1.181l-5.509,3.345q-7.675-14.757-7.675-24.2Zm100.553-25.384v2.164h-1.18v-2.164h1.18Zm-18.89,1.181,1.18,0.983-2.164,2.362h-2.165l2.165-3.345h0.984Zm16.726,13.184h0.984v1.18l-2.165,2.165h-0.984V291.1Zm-77.531,3.345h2.362v-2.165h-2.362v2.165Zm45.456,7.674h-2.165v-2.164Zm18.694-1.18q-4.529,7.872-6.494,7.871h-4.526v-2.165L848.3,303.3l1.181,1.181h2.165l2.164-5.706h2.165Zm-29.714,1.18,2.165,2.165v1.18l-2.165,2.165L823.9,303.3v-3.345h2.361Zm-8.855,5.51v1.181q-0.788,5.511-3.345,5.509l2.165-6.69h1.18Zm12,8.855-3.149,3.345-3.345-3.345v-3.345l0.984-.984Zm56.475-4.329-1.181.984v1.18l1.181,0.984h1.181l0.984-.984v-1.18l-0.984-.984h-1.181Zm-8.855,12q-18.7,6.693-18.694,17.71v3.345q5.507,0,6.494,4.33,0,4.529-4.329,5.509h-1.181l-0.984-.984q-4.529.4-4.526,3.149l-1.18-.984-4.33,3.345,1.181,4.329h2.165l0.984-1.18q0.392,2.757,6.69,7.871H860.5l0.984-1.181,1.18,1.181-1.18.984q1.964,4.529,4.525,4.525h1.181l-1.181,3.346,2.165,2.164-0.984.984,0.984,1.181v1.18l-0.984.984v1.181h0.984q8.855-4.722,8.855-7.674-2.559-5.507-6.69-5.51v-1.181l23.219-5.51v0.984h1.181l1.181-.984-1.181-1.18q18.891-16.132,18.891-30.894v-2.165h-3.346v-1.18l4.329-.984-7.674-5.51h-1.181l-0.983.984-3.346-.984v-2.165H903.6l-2.165-2.361h-2.361l-0.984,1.181-5.51-6.691q-3.74,0-15.545,8.855h0Zm-3.345-5.51-0.984,1.181,3.148,3.345,2.362-2.361-2.362-2.165h-2.164Zm24.4,5.51v1.181l-2.164-2.165v-1.18Zm-146.009,1.181-2.164,2.164h-1.181V321.99l1.181-.984Zm122.789,2.164V327.5H872.7v-2.165h2.164Zm23.22,1.181V327.5h-2.164v-0.984h2.164Zm3.345,3.149q5.508,0,6.494,3.345v7.871l-3.148,3.148h-2.362q-6.494,0-8.855-7.674,3.145-6.687,7.871-6.69h0Zm-164.9,4.525v3.346h-0.984V334.19h0.984Zm133.809,0h1.18q-2.168,8.856-4.329,8.855h-2.361l-0.984-5.509Zm13.38,1.181v0.984l-4.525,6.69h-0.984V339.7l0.984-1.18q3.344,0,3.345-3.149h1.18Zm4.33,0.984L891.4,339.7v1.181l-2.165,2.164h-5.51a7.069,7.069,0,0,1,4.33-6.69h0Zm-55.3,17.71v0.984h1.181l2.164-2.165v-8.855h-2.164Zm72.021-8.855v3.345H903.6l-1.181-3.345h2.362Zm-11.217,4.329v1.181h2.362v1.18h-2.362l-0.984-1.18-3.345,3.345h-1.18V351.9ZM778.643,350.72v3.345h-1.18V350.72h1.18ZM750.9,354.065v2.164h-2.165v-2.164H750.9Zm88.55,15.349v1.18h2.164l1.181-1.18V368.43l-1.181-1.181Zm43.094,3.345h2.164v-2.165h-2.164v2.165Zm-87.369,0-3.346,4.526V376.1l2.362-3.345h0.984Zm-5.51,7.674-2.165,2.361v-2.361h2.165Zm-9.839,1.181-2.361,5.51H775.3v-1.181l2.165-4.329h2.361Zm45.259,0v1.18h-4.526v-1.18h4.526Zm90.714,0-1.181,1.18v0.984l1.181,1.181h0.984l1.181-1.181v-0.984l-1.181-1.18H915.8Zm-180.248,4.329,0.984,1.181,2.361-2.165v-1.181h-3.345v2.165Zm3.345,0-1.18,1.181v1.18l1.18,0.984h0.984l1.181-.984v-1.18l-1.181-1.181h-0.984Zm18.694,1.181h1.181l0.984,3.345-2.165,2.164-2.164-2.164v-1.181Zm34.239,0,1.181,3.345-2.164,2.164h-1.181l1.181-3.345V388.3l-1.181-1.18h2.164Zm34.436,0v3.345h-3.345ZM775.3,388.3v0.984l-2.164,2.165h-1.181Zm27.746,0,4.329,4.329v3.346q0,2.167-6.691,4.329-5.511-2.556-5.509-5.51,0-6.494,7.871-6.494h0Zm35.223,5.51,2.361,2.165h2.165v-2.165l-2.165-2.361Zm57.656,0h0.983v-2.361h-0.983v2.361ZM732.2,395.979l1.181,0.983,2.164-2.164H732.2v1.181Zm55.294,0v4.329l-2.164-2.165v-2.164H787.5Zm9.839,9.838h-2.164l-0.984-5.509v-2.165q2.163,0,3.148,7.674h0ZM798.518,407v2.165h-1.181V407h1.181Zm-26.565,4.329h2.164l-2.164-2.164v2.164Zm53.13,1.181h2.164v-1.181h-2.164v1.181Zm-42.111,2.164h2.362l-2.362-2.164v2.164ZM1026.98,71.886v1.377h4.52l1.58-1.377-3.15-3.148Zm10.43,1.377h1.57V70.312h-1.57v2.952Zm-16.34,0-1.37,1.574q0,4.529-4.53,4.526l2.95,3.148h4.53l4.33-4.526V76.412q-4.335,0-4.33-3.148h-1.58Zm50.57,9.249,2.96,2.952h1.57l4.53-4.526V76.412q-3.945,0-9.06,6.1h0Zm-2.95,7.674h-35.61l-3.15,2.952v16.726q5.115,0,10.43,4.723h1.57l2.95-7.674,2.95-3.149h4.53l2.95,3.149v1.574h-2.95v1.377h1.38l10.43-7.477h1.57l-1.57,1.377,1.57,6.1v1.574l-1.57,1.575-1.38-1.575-23.81,7.675,1.38,7.674-2.95,2.952h-7.48l-1.38,4.526v1.574l1.38,1.574v1.574h-1.38l-1.57-1.574h-2.96v1.574a12.18,12.18,0,0,1,5.91,10.626h1.57l4.53-3.148,1.38,7.674h-1.38l-1.58,1.574h-1.37v-3.148h-3.15v4.723l-4.33-1.575a43.9,43.9,0,0,0-14.96,21.252l2.96,4.723v1.377l-2.96,3.149,1.58,1.574v1.378l-1.58,1.574v3.148l2.96,4.526q9.045,0,9.05,7.674,8.85,3.35,10.43,12.2l-3.15,4.525v44.275c4.06,0.526,6.1,2.036,6.1,4.526v2.952l-4.53-2.952h-1.57v2.952l7.48,12.2h-1.38q-2.955,0-2.95-4.526l-3.15,3.149a15.128,15.128,0,0,0,9.05,7.477l5.9-2.951v1.574l1.58,1.377q-9.06,0-9.05,4.723v1.377l-7.48-1.377v7.477l1.57,1.575-1.57,1.574v1.574l1.57,1.377-1.57,1.575v4.526h1.57q2.955,0,2.95-7.478h2.96l-4.33,9.052v1.574h2.95l1.38-1.574v4.526l-7.48,1.574v42.7l1.57,1.574-1.57,1.574v12.2l4.52,7.478q10.83,0,12.01,6.1v1.574l-1.58,1.574v1.575h2.95l1.58-1.575v6.1l-1.58,1.575,2.96,4.525h2.95l19.48,6.1,13.38-3.149,1.38,1.574h1.57q11.025,0,20.86-12.2l17.91,3.149q6.285,10.626,8.85,10.626h2.95l2.95-3.149,4.53,3.149h2.95v-6.1l-1.37-1.574h2.95l1.37,1.574,1.58-7.674,1.38,1.574,7.47-1.574q0-15.741,10.43-18.3l5.91,1.574,4.52-4.526,1.58,1.378,1.37-1.378,9.06,2.952,4.32-2.952q1.965-9.246,5.91-9.248l1.57-1.575h1.58v3.149h2.95v-3.149q5.895,0,5.9-4.525h1.58q0,10.626,2.95,10.626v1.574l-1.58,1.574v2.952l1.58,1.574h1.37q1.965-10.626,4.53-10.626v2.952l-1.57,1.574,4.52,1.574-5.9,10.626h-2.95v-6.1l-4.53,3.148h-1.57v-4.722h-1.38l-1.57,1.574c0,3.019-1.45,4.526-4.33,4.526q-11.025,21.45-19.48,24.4v3.149l49.19-9.249q84.81-35.419,84.81-150.928l-1.57-6.1h-1.38l-2.95,3.148h-1.58v-1.574l1.58-1.574v-1.574h-2.95v3.148h-1.58v-4.526l-13.38,4.526v-1.574l-1.57,1.574h-1.38l-1.58-1.574-4.32,3.148h-1.58v-1.574l1.58-1.574c0-1.968-2.04-2.952-6.1-2.952v-1.574h2.95l4.52,2.952h1.58l-1.58-4.526v-1.575h1.58l1.37,1.575h6.1l1.38-1.575,1.58,1.575h4.33l2.95-2.952v-3.148h-1.38q-2.955,0-2.95,4.525l-4.53-2.951h-1.38l-1.57,1.574v-1.574l-14.95,2.951-2.96-2.951h-1.37v1.574l1.37,1.377v1.575h-1.37l-1.58-1.575-4.52,3.149-1.38-6.1h-2.95v2.951l7.47,9.249h-3.14q-8.265-7.674-13.38-7.674l-2.96,3.148q-8.85-2.163-8.85-6.1h-5.9v2.952q4.32,0,4.32,4.526v1.574l-1.37,1.574,1.37,1.574v1.378l-1.37-1.378-1.58,1.378-2.95-2.952v-3.148l1.58-1.378-1.58-1.574q-2.955,0-2.95,6.1l-1.57-1.574-5.91,3.148-1.38-1.574h-4.52l1.38,1.574-4.33,12.2v7.478q0,29.517-12.01,47.423-10.035,21.252-63.95,21.252h-19.28V328.09l-1.58-6.1,2.95-24.4-2.95-12.2-7.48,2.951-4.32-4.526,13.38-3.148V279.29l-1.58-1.575c-3.02,0-4.52-1.048-4.52-3.148h3.14l1.38,1.574v-1.574l1.58-1.378v-18.3l-2.96-4.722v-1.378h2.96V237.966q-4.53,0-4.53-2.951,4.53,0,4.53-7.675h-7.48v-1.574l2.95-2.952h1.57l1.38,1.575v-1.575l1.58-1.574v-7.674l-1.58-1.378h-1.38l-1.57,1.378v-1.378l4.53-6.1V164.765h22.23l7.48,1.574v-1.574l4.53-4.526,5.9,3.149v-1.575l5.9,2.952q0-4.524,14.96-4.526v-2.951h-6.1v-4.723q9.045,2.167,9.05,7.674h2.95l2.95-2.951,2.95,2.951,4.53-1.574v-4.526l-7.48,1.574h-1.37v-3.148h4.32v-4.526h-5.9v4.526h-2.95l4.53-9.052v-1.574l-9.06,3.148v-1.574l-1.37-1.574-4.53,1.574v1.574l5.9,1.378v3.148l-5.9,1.575-1.57-1.575h-1.38l-1.58,1.575,2.96-10.823-4.33-2.952-1.58,1.574h-1.37c0-3.148-1.06-4.722-3.15-4.722v3.148h-1.38v-3.148l1.38-1.378v-1.574h-2.95l-1.38,1.574v-1.574h-1.58l-1.37,1.574h-1.58v-6.1q0-2.753,7.48-4.723v3.149l-1.57,1.574h1.57l1.38,1.378h3.15l-1.58-1.378,1.58-7.674,1.37,1.574,7.48-1.574,4.53,1.574v-1.574h1.37v1.574l-1.37,1.377v1.575q5.505,0,11.8-12.2l-1.37-1.574h-1.58l-1.57,1.574-1.38-4.525,1.38-1.575h-2.95v-2.951l2.95-3.149h1.57l1.58,1.574V99.238l1.37-1.574q5.5,4.722,10.43,4.723h1.58l1.37-6.1h7.48v1.377q-7.485,0-7.48,4.723l-11.8,6.1v1.377h2.95v4.723h-1.58l-1.37-1.574h-1.58v1.574l2.95,6.1,4.53-4.723v-2.951l-1.57-1.575h4.52q0,4.53,5.91,6.1l2.95-2.952v-3.149l-4.33,3.149h-1.58l1.58-6.1v-1.574l-1.58-1.575,14.96-9.051-17.91-4.723q-2.955,0-2.95,4.723h-2.95q0-6.1-10.43-6.1h-17.91v2.952h-1.37l-4.53-2.952q0,4.529-2.95,4.526V90.187h-6.1l-2.95,2.952-4.33-2.952h-12.01l-1.37,1.377-1.58-1.377h-1.57c-2.23,0-3.68,2.494-4.33,7.478h-2.95l1.37-1.377-1.37-6.1h-2.96l-1.57,1.377-4.53-2.952q-10.425,0-19.28,9.052v1.574l1.38,1.574,4.52-1.574h1.58v4.526l-12.01-2.952-4.32,2.952,1.37,1.574-2.95,3.149v-3.149h-4.52l-11.81,4.526-2.95-2.951,1.37-4.526v-1.575h-2.95V97.664l7.48,1.574,4.53-1.574q0,4.722,2.95,4.723,8.85-9.248,14.76-9.249V90.187h-13.38l-7.48-1.574Zm58.05,2.952v4.526h-4.52Zm65.53,0-1.57,6.1h-1.38l-1.58-4.526V93.138h4.53Zm16.33,3.148v2.952h-1.57V96.287h1.57Zm-63.95,1.377v1.574h-4.53V97.664h4.53Zm43.09,1.574,1.58,1.574v1.575l-1.58,1.377h-1.37l-1.58-1.377q0,4.529-2.95,4.526l-1.57-4.526q4.515,0,4.52-3.149h2.95Zm43.29,1.574,4.33,1.575V99.238l-4.33-1.574v3.148Zm-59.62,0q0,4.53,2.95,4.526h1.58l1.37-1.574v1.574l1.58,1.575v1.574h-2.95l-10.43-1.574v-1.575q0-2.361,5.9-4.526h0Zm-23.81,1.575v2.951h-2.95Zm-78.91,1.377v3.149h-1.37v-3.149h1.37Zm31.29,0v3.149h-1.57v-3.149h1.57Zm11.81,0-2.95,3.149v-3.149h2.95Zm46.24,0h5.9l-4.52,6.1-5.91-1.377Zm-150.34,3.149h1.58v-3.149h-1.58v3.149Zm139.91,0v1.574l1.58-1.574,4.32,4.525-5.9-1.574h-1.57l-1.38,1.574v-1.574l-1.58-1.377Zm73.01,1.574h1.37v-3.149h-1.37v3.149Zm7.28,0v1.377h1.57l2.95-2.951v-1.575h-1.38Zm-40.15,0v2.951h-1.37v-2.951h1.37Zm-14.75,1.377v3.149h-1.58v-3.149h1.58Zm44.47,1.574,3.15-2.951h-3.15v2.951Zm-102.52,0v3.149h-1.58v-3.149h1.58Zm14.75,3.149v1.377l-2.95,3.149h-4.52v-1.574q4.515,0,4.52-6.1Zm9.06-3.149h1.37v3.149h-4.52Zm44.47,0v3.149l4.52-1.574,4.53,1.574v1.377h-4.53c-4.98,0-7.94-1.506-8.85-4.526h4.33Zm-17.71,4.526-1.58,4.723c-3.02,0-4.52.984-4.52,2.952h-1.38v-2.952l1.38-1.574-1.38-4.526Zm10.43-1.377-2.95,2.952v-2.952h2.95Zm-59.63,1.377v3.149h-1.37v-3.149h1.37Zm-26.76,4.723v2.952h-1.57v-2.952h1.57Zm46.05,0v1.377l-2.95,3.149v-1.574Zm20.86,2.952,2.95,3.148v1.378h-1.38l-5.9-2.952v-1.574h4.33Zm-75.76,1.574v2.952h-1.58v-2.952h1.58Zm96.61,0h2.96v-1.574h-2.96v1.574Zm16.34-1.574-1.38,1.574,5.9,4.526,2.95-2.952v-3.148h-4.32l-1.58,1.574v-1.574h-1.57Zm-148.77,3.148h4.53l5.9,9.052q-13.38-1.574-13.38-6.1Zm41.72,0v2.952h-2.95Zm28.34,0-3.15,2.952v-2.952h3.15Zm25.18,1.378v1.574l-4.52,1.574v-3.148h4.52Zm-78.9,1.574,2.95,3.148v2.952l-5.91,3.148v-4.722l1.58-1.378-1.58-1.574v-1.574h2.96Zm41.71,0v3.148h-1.57v-3.148h1.57Zm31.29,0v1.574l-4.53,1.574v-3.148h4.53Zm11.81,1.574v1.574l-2.96,2.952q0,2.952,9.06,6.1l4.33-4.526,1.57,4.526h-5.9v3.148l1.37,1.378-1.37,1.574-6.1-4.526h-1.38l-1.58,1.574-2.95-4.722h2.95v-2.952l-1.37-1.574h1.37l-1.37-4.526v-1.574Zm-49,2.952h-2.95v-2.952Zm31.29-2.952v1.574h-4.53v-1.574h4.53Zm29.71,2.952h-2.95v-2.952Zm53.52-1.378h2.96v-3.148Zm-89.33,2.952v1.574l-4.33-1.574v-1.574l1.37-1.378Zm28.33-2.952v2.952h-2.95v-2.952h2.95Zm-35.61,1.378v3.148l-7.48,1.574v-3.148Zm16.33,1.574h1.38l1.57-1.574,1.38,4.722c0,3.02-.99,4.526-2.95,4.526h-4.33l-2.96-7.674,1.38-1.574Zm7.48-1.574v3.148h-1.58v-3.148h1.58Zm28.14,0v1.574q-4.335,0-4.33,4.526l-3.15-2.952q4.515,0,4.52-3.148h2.96Zm34.23,0h2.96v-1.378h-2.96v1.378Zm5.91,1.574h1.57v-2.952h-1.57v2.952Zm-160.57,0-2.95,3.148v-3.148h2.95Zm136.76,1.574h1.57v-3.148h-1.57v3.148Zm-83.24,0v2.952h-1.57v-2.952h1.57Zm148.76,6.1h2.96l-1.38-7.674h-2.95Zm-172.57-4.526,4.53,2.952h1.37l1.58-1.574v1.574h2.95q2.955,6.1,8.85,6.1v3.149l-4.32,1.377-16.53-12.2v-1.378h1.57Zm20.86,0v1.378h-2.95v-1.378h2.95Zm22.23,0v1.378l-2.95,3.148v-1.574Zm65.53,1.378h7.48v-2.952h-4.53l-1.37,1.574-1.58-1.574v2.952Zm25.39,0h2.95l-2.95-2.952v2.952Zm-38.77,0v3.148h-1.57v-3.148h1.57Zm44.67-1.378-1.57,1.378,2.95,6.1h3.15v-4.526l-3.15-2.952h-1.38Zm-116.1,2.952v7.674q-2.16,0-4.53-6.1v-1.574h4.53Zm20.86,1.574v2.952h-1.58v-2.952h1.58Zm-7.48,1.574v1.378h-2.95v-1.378h2.95Zm23.81,1.378v6.1h-1.57v-2.952h-5.91v2.952h-1.37v-1.377l2.95-6.1Zm25.39,1.574h-3.15v-2.952Zm10.43-2.952v1.378h-6.1v-1.378h6.1Zm4.32,0-2.95,2.952v-2.952h2.95Zm56.68,0h2.95v-1.574h-2.95v1.574Zm-169.82,1.378v1.574h-2.95v-1.574h2.95Zm6.1,0v3.148l-2.95-3.148h2.95Zm4.33,0v1.574h-2.96v-1.574h2.96Zm52.14,0h1.58v1.574l-4.53,1.574h-1.57v-1.574Zm81.86,1.574v1.574l1.58,1.575h-1.58v4.525h1.58l2.95-3.148h1.38l-2.96-7.478Zm-63.95,0v3.149h-1.58v-3.149h1.58Zm58.05,1.574h4.33v-1.574h-4.33v1.574Zm46.04,1.575,2.96-3.149h-2.96v3.149Zm-169.62,0,2.95,4.525v1.575l-8.85-3.149v-1.574Zm-26.76,1.377v3.148h-2.95v-3.148h2.95Zm87.76,0h1.58v3.148l-1.58,1.575h-1.37l-1.58-1.575Zm78.91,0,1.58,1.574v1.574q-4.53,0-4.53,2.952,4.53,0,4.53,3.148v1.575l-7.48,2.951v-1.574l1.38-1.377v-1.575l-4.33-1.574-4.53,4.526q0,4.724,7.48,4.723,0,6.1,10.43,6.1v-1.574l1.37-1.575-4.32-1.574,1.37-9.052,7.48,1.575v1.377h-2.95v3.149h2.95l1.57-1.575v1.575l1.38,1.574v1.377l-1.38,1.574h2.96l1.37-1.574q0-10.626-10.43-10.626c-0.91-6.032-2.36-9.051-4.32-9.051h-1.58v1.377Zm-150.34,1.574v1.574h-2.95v-1.574h2.95Zm81.86,1.574v1.575h-2.95v-1.575h2.95Zm98.19,1.575v1.377l1.58-1.377h1.38l1.57,1.377v-4.526h-1.57Zm-145.81,0v2.951h-1.57v-2.951h1.57Zm65.53,1.377v1.574h-2.95v-1.574h2.95Zm8.85,9.249h2.96v-3.149h-5.91Zm5.91,0v1.574l13.58,2.951h1.37l1.58-1.574,5.9,12.2,7.48-2.951-1.58-4.526c-1.96,0-2.95,1.51-2.95,4.526h-1.57l-1.38-1.574,1.38-7.675-2.95-2.951h-1.38l-1.58,1.574q0-4.724-2.95-4.723h-4.52Zm59.62,0v1.574h4.53l1.37-1.574-2.95-3.149Zm-25.38,0h1.57l-2.95,2.951h-1.57Zm9.05,10.626h1.38v-2.952h-1.38v2.952Zm7.48,0h2.95v-2.952h-2.95v2.952Zm47.62,0h1.37v-2.952h-1.37v2.952Zm-58.05,3.148v1.377h4.33v-2.951l-1.38-1.574Zm7.47,2.952,2.96-2.952h-2.96v2.952Zm7.29,0v-2.952h-2.96Zm-26.77,4.526,4.53,4.722h1.38V190.74h-2.95v-1.574l1.57-1.378h-4.53v1.378Zm-165.09,10.822q0-7.674,5.9-9.248v1.574l1.38,1.574v6.1q-5.91,0-5.91,9.052h-1.37l-1.58-1.574v3.148l-4.52-3.148q0-7.476,6.1-7.478h0Zm75.76-1.574v4.526l-5.91-4.526V196.84Zm-23.81,0v1.574h-2.96v-1.574h2.96Zm4.52,6.1v1.574h-2.95v-4.722Zm12.01-3.148v3.148h-1.58v-3.148h1.58Zm-25.39,4.722h1.58l1.37-1.574v2.952l-4.52,1.574v-4.526Zm34.24,0v2.952h-1.57v-2.952h1.57Zm-5.9,4.526,2.95,2.952v1.574h-1.58l-4.32-4.526h2.95Zm-14.96,2.952h2.95v1.574l-2.95,3.149h-2.95v-1.575Zm8.86,0v1.574h-2.95v-1.574h2.95Zm-43.1,3.148-2.95,2.952v-2.952h2.95Zm41.72,0v2.952l-5.9,1.574h-1.58v-1.574Zm-37.19,1.575v1.377h-2.95v-1.377h2.95Zm8.85,2.951-2.95,6.1-4.52-1.574v-1.377c4.06,0,6.1-1.049,6.1-3.149h1.37Zm9.06,0v3.149h-3.15Zm10.23,0v3.149l-1.38,1.377-7.48-2.952V221.24h8.86Zm20.86,12.2q0,2.56-8.86,4.526v-2.951l1.58-1.575,1.37,1.575,2.95-3.149v-1.377l-1.37-1.574-1.58,1.574h-1.37l-1.58-1.574h-2.95l-1.57,1.574v-1.574l-1.38-1.575q7.47,0,7.48-4.526Zm-37.19-9.051v2.951h-1.38v-2.951h1.38Zm-11.81,2.951v3.149h-2.95l-2.95-3.149h5.9Zm14.76,1.575,3.15,2.951v1.574l-4.53-1.574v-2.951h1.38Zm10.43,2.951h-2.96v-2.951Zm4.52-2.951v2.951h-1.57v-2.951h1.57Zm44.67,1.574v1.377l1.58,1.574,2.95-2.951v-1.574l-1.58-1.575Zm-95.24,0v2.951h-2.95v-2.951h2.95Zm55.1,1.377h1.38l-1.38,4.723h-1.58l-1.37-1.574Zm-23.81,1.574,1.38,4.526v1.575h-1.38l-1.58-4.526V233.44h1.58Zm16.33,0v4.526h-2.95v-1.377Zm13.38,6.1v3.148h-2.95Zm144.44,1.574h2.95v-3.149h-2.95v3.149Zm56.47,1.574h2.95v-3.148h-2.95v3.148Zm4.53,2.952h2.95v-2.952h-2.95v2.952Zm-236.73,3.148v2.952l-2.95-2.952h2.95Zm154.87,1.378,2.95-2.952h-2.95v2.952Zm17.9-1.378v1.378h-3.14v-1.378h3.14Zm10.24,0v4.526l-4.33-4.526h4.33Zm20.86,1.378,1.57,4.722h-1.57l-1.38-1.574v-3.148h1.38Zm-218.62,1.574v1.574h-3.15v-1.574h3.15Zm50.57,0v1.574h-2.95v-1.574h2.95Zm135.38,0,2.95,3.148v1.378l-2.95,3.148h-4.53v-1.574q4.53,0,4.53-2.952h-2.95v-3.148h2.95Zm58.05,1.574v1.574l1.38,1.378v1.574h-7.28q-2.955,0-2.96,6.1h-1.57q0-6.1-5.9-6.1v-1.574Zm-37.19,1.574v1.378h-2.95v-1.378h2.95Zm-40.14,2.952v3.148h-2.96v-3.148h2.96Zm54.9,3.148h-2.95v-3.148Zm23.81-1.574v2.952h-1.38l-2.95-2.952h4.33Zm-258.96,2.952h3.15v1.574l-9.06,3.148v-3.148Zm-8.86,3.148-2.95,2.952v-2.952h2.95Zm233.77,1.574v1.378l-1.57,1.574-2.95-2.952v-1.574Zm-23.81,0v1.378h-3.14v-1.378h3.14Zm14.76,0v1.378h-2.95v-1.378h2.95Zm19.29,0v1.378h-2.95v-1.378h2.95Zm-13.38,4.526v2.952h-2.96v-2.952h2.96Zm-5.91,6.1h-2.95v-3.148Zm-14.76-1.574v3.149h-3.14v-3.149h3.14Zm-214.48,7.674v2.952h-1.38v-2.952h1.38Zm67.1,1.575h1.38v2.951h2.95l1.57-1.574q-0.195,3.348-8.85,9.249h-6.1v-3.149q3.54,0,9.05-7.477h0Zm-29.91,1.377v1.574h-2.95v-1.574h2.95Zm7.48,3.149q4.515,2.559,4.52,6.1l7.48-1.575v3.149c-3.94.526-5.9,2.035-5.9,4.526h-1.58l-1.57-1.574h-1.38q-5.91,3.149-5.9,7.674-7.485,7.872-7.48,13.774h-4.53v-3.148l1.58-9.052v-1.574h-1.58l-1.37,4.526h-1.58l-1.57-1.575-8.86,4.723v-1.574q4.53-5.115,4.53-9.249,13.38-5.113,13.38-13.577h1.38q0.39,7.48,4.52,7.477h2.95l1.58-4.526v-1.574h-2.95V291.49Zm1.57,9.051,2.95-2.951h-2.95v2.951Zm-44.67,3.149v2.951h-1.57v-2.951h1.57Zm7.48,4.526,2.95,4.525v1.575l-5.9,1.574v1.574l1.37,1.378-7.47,4.722-1.38-6.1,4.53,1.378h1.37l-2.95-4.526V309.79Zm188.91,0,1.57,1.574q0,15.348-14.96,27.352l-5.9-1.378,1.58-9.248-1.58-7.674q2.955,0,2.95-6.1h1.58v3.149q8.85-3.541,8.85-7.674h5.91Zm-171,12.2h-3.15V315.89Zm29.71-1.574v3.148h-1.58v-3.148h1.58Zm-9.05,4.722v2.952h-2.95Zm31.28,1.378,1.58,4.722h-2.95v-4.722h1.37Zm-2.95,4.722v2.952h-1.37V328.09h1.37Zm-53.52,6.1h-2.95v-3.148Zm-5.9-1.574v2.952h-3.15Zm227.67,0v6.1h-4.53v-6.1h4.53Zm-232.2,1.574v2.952h-2.95Zm40.14,0v2.952h-2.95Zm-48.99,7.478q0,5.313,8.85,19.874l-4.53,1.575q-0.975-4.526-5.9-6.1l2.95,7.674h-1.37l-1.58,1.377h-2.95l2.95-2.951-4.52-6.1v-1.575h2.95l1.57,1.575v-1.575l1.58-1.574v-1.377l-1.58,1.377h-1.57l-1.38-1.377,1.38-1.574-1.38-7.675Zm23.81,3.148-3.15,2.952v-2.952h3.15Zm16.33,2.952v3.149l-1.58,7.674,1.58,1.377h-2.95l1.37-9.051v-1.575l-1.37-1.574h2.95Zm23.81,0v3.149h-1.58v-3.149h1.58Zm-53.72,1.574v3.149h-1.38v-3.149h1.38Zm189.1,0v6.1l-1.57,1.575h4.52l-1.37,1.574,1.37,4.526v1.574l-7.47-1.574c0-3.017-1.45-4.526-4.33-4.526v-1.574l2.95-6.1,1.38,1.574Zm-17.91,6.1v3.149h-1.37v-3.149h1.37Zm10.43,6.1v1.575l-1.37,1.574v1.377h2.95l1.38-1.377q-0.795,12.2-4.33,12.2l-2.96-10.823,1.38-4.526h2.95Zm-199.33,3.149v2.952h-2.95v-2.952h2.95Zm2.95,4.526v4.526h-1.57v-4.526h1.57Zm5.9,6.1-1.37,4.526-4.53-1.574v-2.952l1.38-1.574Zm169.63,4.526h1.57l1.38-1.574-2.95-2.952v4.526Zm-172.58,22.826h2.95l-2.95-2.952v2.952Zm144.44,15.349h1.37v-3.149h-1.37v3.149ZM1451.03,214.55l-1.18,1.18v1.181l1.18,1.181h0.99l1.18-1.181V215.73l-1.18-1.18h-0.99Zm34.83,13.184v1.181l0.98,1.18,2.17-2.361v-1.378l-0.98-1.18Zm-65.53,3.542-3.14-1.181h-1.18l-0.99,1.181-4.52-1.181-2.17,2.362q-5.31,0-5.31,2.361h-1.18l-0.99-1.181h-2.16l0.98,3.542v1.181L1395.34,236l-1.18,1.18v-2.361l-10.82,3.542q-29.52,19.287-29.52,45.259,0,2.757,18.7,3.542,0-4.724,2.16-4.723h0.99v1.181l-0.99,1.18q0,4.331,40.34,7.084,0.99-8.458,19.48-24.99l3.35,3.542q12,0,12-7.084l12,4.722q9.84,12.6,9.84,22.63l-1.18,3.542,2.17,2.361-2.17,2.361q-2.16,0-2.16-3.542-5.91,0-24.01,8.462v1.18l1.18,1.181,3.15-1.181q3.345,0,4.53,4.723l-2.17,2.361-4.52-1.18-3.15,3.542v1.18l0.98,1.181q-7.68,0-17.32,10.626h-5.51q-4.125-17.711-7.67-17.71,0,4.722-2.16,4.723h-2.17l-1.18-3.542q-18.495,3.938-18.5,5.9-6.495,0-6.49,7.084h-2.16l-1.19-4.723-7.47,3.542-3.35-1.18-1.18,1.18,1.18,1.181q-21.84,17.317-21.84,45.259,0,15.546,9.84,29.713h2.16l1.18-1.18c0-2.362.72-3.542,2.17-3.542h0.98c1.44,0,2.17,1.574,2.17,4.722l32.86,9.642,3.15-2.361v-2.558h1.18v2.558h4.33l5.51-1.378q2.16,3.741,5.31,3.739v1.181l-6.49,2.361q0,3.543,26.17,5.9,5.505,0,7.67-5.9l3.15,3.542q7.08-.983,25.19-17.906h2.16q0,15.938,14.17,20.268h52.34q-6.495-20.856-6.49-28.533V372.759l-1.18-11.807,1.18-7.281v-1.18l-1.18-1.181h1.18l-1.18-12.987,1.18-3.542-1.18-1.181,1.18-1.181v-1.18l-1.18-1.181,1.18-1.377V327.5l-2.17-3.542v-1.181l2.17-2.361-1.18-1.181,1.18-1.18-1.18-3.542v-1.181l1.18-1.181c0-2.361-.72-3.542-2.17-3.542l0.99-6.1v-7.084q0-22.626-5.31-22.629l0.98-3.542-5.51-14.168h-3.15l-2.16,2.361v2.362l0.98,1.18h1.18l0.99-1.18h1.18l0.98,1.18-2.16,2.362h-0.99l-1.18-1.181v3.542l1.18,1.181-2.16,2.361h-1.18q-2.175-14.167-10.83-14.168v1.181l2.17,3.542v1.18l-2.17,2.362c-2.88-1.31-4.33-3.672-4.33-7.084h-1.18l-1.18,1.18v-2.361h2.36l0.99,1.181,2.16-8.462-6.49-2.361h-1.18l-0.99,1.181q-0.585-2.754-8.85-5.9h-0.98l-1.19,1.181q-4.125-4.724-8.65-5.9h-0.99l-1.18,1.18-4.33-3.542L1469.53,236h-1.18l-0.99-1.181h-1.18L1465.2,236l0.98,1.18-0.98,7.084,2.16,4.723h-2.16q0-4.326-4.53-7.084h-6.49q0-4.724-3.15-4.723v2.362l-1.18-1.181h-1.18l-0.98,1.181h-3.35V238.36l2.17-2.361h2.16v-5.9l-2.16-2.361h-2.17q0,5.313-7.67,10.626-3.15,0-3.15-2.361h4.33v-1.181q-2.565,0-7.68-5.9l-2.16,2.361v1.181h3.34v1.18l-1.18,1.181-2.16-2.361-0.99,1.18h-2.16v-1.18h2.16v-1.181l-2.16-3.542q-4.53,1.771-4.53,3.542h0Zm17.52-2.361,2.16,2.361,2.17-2.361v-1.181h-4.33v1.181Zm51.16,2.361h2.36v-2.361h-2.36v2.361Zm-65.33,1.181-2.17,4.722h-2.16l-5.51-1.18-0.98,1.18v-2.361h7.47v-2.361h3.35Zm41.52,1.18h2.16v-2.361h-4.52Zm-6.69,1.181h2.16v-2.361Zm-32.67,0v2.361h-0.98v-2.361h0.98Zm6.5,0v2.361h-0.99v-2.361h0.99ZM1443.36,236v2.361h-2.17Zm38.17,4.722v2.362h-1.18v-2.362h1.18Zm-5.51,2.362v2.361h-1.18v-2.361h1.18Zm7.68,1.18v1.181h-4.33v-1.181h4.33Zm-74.19,2.362h2.17l2.16,2.361v3.542l-3.34,1.377-3.15-3.738v-1.181Zm-15.35,1.18v2.362l-2.16,2.361-2.17-2.361v-2.362h4.33Zm-10.82,1.181v1.181h-2.16v-1.181h2.16Zm-8.66,2.361,2.17,2.558v2.362l-1.18,1.18-3.15-1.18v-2.362Zm88.16,1.181v1.377h-2.17v-1.377h2.17Zm-19.48,1.377,5.31,2.362v1.18q0,5.9-4.33,7.084-5.31-.783-5.31-3.542v-3.542Zm50.18,2.362,0.98-1.181h1.18l0.98,3.542v1.181h-3.14l-1.19-3.542h1.19ZM1404,259.809v5.9l-3.15,1.181c-2.23,0-3.34-.788-3.34-2.362V262.17l2.16-3.542Zm66.51,2.361h2.17v3.542l-0.99,1.181-3.34-2.362Zm-63.16,2.361h0.98l5.51,1.181v5.9l-3.34,3.542h-2.17l-4.33-3.542c0.79-4.722,1.9-7.084,3.35-7.084h0Zm97.01,1.181v3.542h-3.35v-3.542h3.35Zm19.68,1.181,2.16,2.361v2.361l-5.51-1.18Zm-96.03,3.542-2.17,2.361h-2.16v-3.542l1.18-1.181Zm54.51,2.361h2.16v3.542l-0.98,1.181-3.35-1.181v-1.181Zm-95.83,1.181,2.16,2.361v3.739l-3.35,1.18-3.34-4.919h1.18v-2.361h3.35Zm138.33,0q0,6.1,4.53,6.1l-2.37,4.722h-3.14l-5.51,1.181-3.35-3.542,1.18-3.542q5.505,0,5.51-4.919h3.15Zm-42.5,6.1,1.18,1.18v1.181l-1.18,1.181-2.17-2.362v-1.18h2.17Zm-92.69,1.18h1.18l2.17,2.362v3.542h-3.35l-2.16-2.362v-1.18Zm103.71,2.362h9.83q11.82,1.577,11.81,9.445l6.69,2.361-2.16,4.723q-7.68,0-7.68,6.1l4.33,2.361-1.18,5.9h-3.15l-2.16-2.362V309.79h-1.18l-12.99,10.626h-3.35q-5.5-2.163-6.49-22.629l0.98-1.181-4.32-4.723v-2.361l1.18-1.181,3.14,1.181-0.98,1.181v1.18l0.98,1.181Zm36.99,2.361v1.181q-2.355,7.083-8.66,7.084l4.33-8.265h4.33Zm2.16,11.807h-2.16v-2.362Zm-139.51,3.542v1.18l2.16,2.558,2.17-2.558v-1.18l-2.17-2.362Zm140.69,0v3.738h-2.16q0,7.085-4.53,8.265h-0.98l0.98-8.265q3.345,0,3.35-3.738h3.34Zm-176.7,6.1h3.34v-1.181l-2.36-2.361h-0.98v3.542Zm-20.66,0v2.361l2.16,3.542,0.99-1.181h1.18l0.98,1.181h2.16l2.37-2.361V309.79q0-1.965-7.68-4.723Zm111.18,10.626h0.98l1.18,1.18-1.18,5.9h-2.16l-2.17-2.362V321.6Zm24.99,2.361h3.34v3.542h-5.51v-1.181Zm9.84,0,1.18,1.181-2.17,2.361h-1.18V321.6l1.18-1.181h0.99Zm-44.67,1.181,2.16,2.361v2.361l-3.34,1.181v-1.181l-0.99-1.18V321.6h2.17Zm90.51,1.18h2.17v1.181l-2.17,4.723h-3.34v-2.362Zm-123.18,3.542,2.17,2.362v2.558h-2.17l-2.16-2.558v-2.362h2.16Zm98.19,10.823c-3.02.394-4.52,1.574-4.52,3.542v1.181l1.18,1.18h-1.18q-6.495-2.951-6.5-10.626,1.575,0,3.35-4.919,4.92,0,7.67,9.642h0Zm-89.53-8.461v2.558l-0.98,1.18-2.36-2.361v-1.377h3.34Zm34.83,0,1.18,7.28q8.07,0,19.68-7.28h2.16v24.99l2.17,3.739v2.361h-3.35l-0.98-1.18q-11.415,26.172-41.52,26.171l-9.84-8.461-8.66,3.739v-1.378l-1.18-1.181,6.69-3.542-2.16-10.626,0.98-1.18v-2.362h-0.98l-4.53,3.542h-3.15l-3.34-2.361,2.16-7.281q5.91,0,8.86-3.542l5.31,1.181,6.69-5.9q20.07-6.687,21.65-9.446v-1.18l-2.17-2.362,1.18-3.738h3.15Zm-67.49,6.1h2.16q9.84,1.969,9.84,4.722v1.181l-2.17,3.542-1.18-1.181-5.51,1.181q-3.54,0-5.31-5.9c0-2.362.72-3.542,2.17-3.542h0Zm26.17,2.361h2.16l2.17,2.361-3.35,9.446-5.31-5.9v-1.18Zm112.36,9.445h-1.18l-0.99,1.181h-2.36l-3.15-2.361,2.17-5.9q4.32,0,5.51,7.084h0Zm-122.2-1.18,2.16,2.361-2.16,2.361h-3.35v-4.722h3.35Zm81.86,1.18h2.16v3.542h-3.34l-0.99-1.18Zm10.82,3.542-2.16,2.362v-2.362h2.16Zm31.68,4.92q4.92,4.722,7.68,4.722v2.362l-7.68,7.084h-5.51c-1.31,0-2.43-1.968-3.34-5.9h-0.99l-1.18,1.181h-2.16v-2.361q8.85-7.084,13.18-7.084h0Zm-43.68,1.18v2.362h-2.17v-2.362h2.17Zm-122.2,2.362h2.16v3.542l-0.98,1.18-3.35-1.18v-1.181Zm128.69,1.18v2.362h-2.16v-2.362h2.16Zm-151.52,5.9,1.18,1.18,2.17-2.361v-1.181h-3.35v2.362Zm53.53,1.18h2.16l2.16,2.362v1.18l-2.16,3.542q-4.53-1.77-4.53-3.542v-1.18Zm-17.52,1.181,2.17,2.361v1.181h-4.33v-3.542h2.16Zm136.37,0,0.98,1.181-2.16,2.361h-2.17v-3.542h3.35Zm-145.03,1.181v1.18h-2.36v-1.18h2.36Zm118.86,0,0.98,1.18-3.15,3.542h-1.18V370.4Zm7.47,1.18v1.181l-0.98,1.181-2.16-2.362h3.14Zm24.01,1.181v1.181l-2.16,2.361h-0.99v-3.542h3.15Zm23.02,7.084-3.34,3.739v-4.92l1.18-1.18Zm-157.02,1.378h2.16l2.17,2.361v3.542l-4.33,1.181-2.17-3.542V382.4ZM1404,382.4v2.361h-2.16Zm12.01,0,1.18,1.181-1.18,3.542v1.18l7.67-4.722h1.18v2.361q-8.85,2.759-8.85,5.9h-0.99l-1.18-1.18q-2.16,0-2.16,3.542h-2.17v-3.542l-3.34,1.18v2.362l1.18,1.18-1.18,1.181v1.181l1.18,1.18q-1.98,0-2.17,4.723H1404v-3.542h-3.15l-1.18,1.181,2.17-8.265-0.99-3.542h6.5Zm-25,5.9h-2.16v-2.361Zm124.17-1.18h1.18v2.361l-1.18,1.181h-0.98l-1.18-1.181Zm-116.49,1.18v2.362h-2.36Zm106.85,2.362v2.361l-2.17,2.361v-2.361Zm-53.52,11.806h1.18v1.181l-8.86,2.558h-2.16v-1.378Zm-10.83,1.181v3.739h-2.16v-3.739h2.16Zm15.15,0v2.558h-0.98v-2.558h0.98Zm-34.83,1.18v2.559h-1.18v-2.559h1.18Zm12.99,1.378v2.361h-0.98v-2.361h0.98Zm86.19,0v2.361l-2.16-2.361h2.16Zm1.18,3.542,3.15,2.361-0.98,3.542h-4.33v-3.542Zm6.49,0v2.361l-2.16-2.361h2.16Zm117.28-206.42v0.984l2.17,1.968,2.36-1.968v-0.984l-2.36-1.967Zm-3.54,13.775-1.18.984v0.984l1.18,0.984v0.983l-10.23-1.967q-2.355,0-2.36,3.935l-1.18-.984h-1.18l-1.18.984h-0.99l-1.18-.984v0.984l-1.18.984-2.36-1.968h3.54v-2.951q-3.93.787-6.89,5.9l-1.18-.984a12.678,12.678,0,0,0-10.23,4.723l-1.18-.787-10.43,2.755v0.983q0,1.969,3.54,1.968v1.968q-10.425,1.97-10.43,3.936v0.983h2.37v1.968H1587v18.694q-6.885,4.921-6.88,8.855h-2.17l-1.18-2.952,1.18-4.919h-13.77l-2.36,1.968v17.71l2.36,1.771V284.6l-1.18.983v0.984l1.18,0.984H1563l-1.18.984,1.18,11.807q2.16,0,2.16-2.952h3.54l1.19,0.984,3.34-2.952h4.72q0,2.952,3.35,2.952l-1.18.984,1.18,2.951V303.3h-2.36v1.968h5.9l0.98-.984,1.18,0.984h1.19v-3.935h4.52l2.36,1.967v4.92q5.91,0,8.07,9.839l-1.18.984q-2.955-.591-5.71-4.92,0-2.952-4.52-2.952,0-3.933-2.36-3.935H1587v3.935l3.55,2.952q4.9,8.265,9.05,8.855l2.36-2.952,5.71,1.968q1.965,4.922,5.7,4.92v1.967q0,2.952-12.59,2.952c-2.23,0-3.35-.655-3.35-1.968q-2.94,0-3.54,3.936h-1.18l-3.34-3.936,5.7-1.967q-2.76-7.869-5.7-7.872v-1.967H1587v3.935q0,1.969,4.73,1.968v0.984l-4.73,5.9v28.336l3.55-.984h2.16l-5.71,5.9v10.822l1.19,0.984,5.7-.984h1.18q0,4.922,5.71,4.92v1.968q-4.335,0-11.41-3.936h-1.18l2.36,13.578v0.984l5.7-.984V394.4h-3.54v1.968q14.37,20.661,28.73,20.662l1.18-2.952h4.53l1.18,0.984-1.18.984v0.984l1.18,0.984,4.52-.984h1.18l1.19,0.984q3.54-11.808,9.24-11.807l4.53,0.984q3.345,0,3.34-3.936l9.25,1.968h2.36c1.19-2.623,2.3-3.935,3.35-3.935q0-3.935,3.54-3.936h1.18v1.968h2.17v-1.968q4.725,0,4.72-2.952h0.98l1.18,0.984v0.984l-1.18.984v1.968l2.36,1.968v-1.968h1.19l1.18,0.984h1.18l0.98-.984v1.968l-0.98.983,0.98,0.984,3.54-.984v-0.983l-2.36-7.872,1.18-2.754h2.36v1.771h2.17v-0.984l-3.35-3.739V386.73l2.36-1.968-2.36-10.823q-7.875,2.952-20.66,3.936-13.77,0-13.77-17.71V321.006l-1.18-.984c-2.24,0-3.35-.654-3.35-1.967v-0.984l0.98-.984c2.37,0,3.55-.655,3.55-1.968q-3.54,0-10.24,3.936l-9.24-4.92h-2.37q-4.515,1.969-4.52,5.9l-3.54-1.968v0.984l-5.71,3.935v0.984q0,3.15,3.54,6.887v0.984l-2.36,2.952-4.53-1.968,1.19-3.935-1.19-2.952q-5.7,0-5.7-3.936-3.54,0-3.54-1.967v-0.984l2.36-1.968h1.18l5.7,5.9q1.965,0,3.35-4.919l-8.07-10.823v-0.984c0.4-1.31,2.36-2.623,5.91-3.935l9.05,2.951-1.18,4.92,8.06,0.984h1.19l-2.37-6.888v-0.984q4.725,1.578,4.73,2.952l3.34-1.968h4.72q0,2.952,4.53,4.92h5.71l1.18-3.936,3.34,0.984,1.18-2.952h6.89c0,1.968.79,2.952,2.36,2.952h20.66l2.17-1.968V281.848l-0.99-6.888h0.99v-1.967l-0.99-6.888h-1.18l-1.18.984c0-3.277-.78-4.919-2.36-4.919h-32.07V244.46l-1.18-.984,1.18-.984v-2.951l-2.36-1.968,2.36-2.952v-3.935l-1.18-.984,1.18-.984v-7.675q0-1.964-6.89-3.935l-4.53,2.952v-2.952h-2.36Zm-45.85,2.952v2.951l2.36,1.968h0.99l3.54-2.952v-0.984l-3.54-2.951h-0.99Zm-6.88,8.658,2.36,1.968h0.98l2.36-1.968v-0.787l-2.36-1.968Zm38.96-1.771v0.984h-2.36v-0.984h2.36Zm9.25,2.755v1.967h-1.18V229.7h1.18Zm-29.91,10.822h4.52l1.18,2.952c-1.44,3.281-3.74,4.92-6.88,4.92h-0.99l0.99-.984-0.99-4.92Zm20.66,13.775v1.968h-2.36V254.3h2.36Zm5.7,1.968,1.19,0.983v0.984l-1.19.984-3.34-.984v-1.967h3.34Zm-32.07,1.967v3.936h-1.18l-1.18-2.952v-0.984h2.36Zm48.21,4.92v1.968h-1.18v-1.968h1.18Zm-60.8.984,2.36,1.967v0.984l-2.36,1.968-2.37-1.968v-0.984Zm48.21,1.967,1.18,0.984q0,12.6-11.61,17.514-4.53,0-4.53-3.739-8.07,0-8.07-2.952V274.96l2.36-2.951h1.19l0.98,0.984h1.18l1.18-.984,1.18,0.984h2.36v-3.936h0.99v1.968q6.885-2.361,6.88-4.92h4.73Zm40.14,0.984h1.18l2.16,1.968v2.952l-6.88,2.951h-2.17l-2.36-1.967v-0.984Zm-105.67,10.823h-2.16v-1.968Zm115.9,1.968v1.968h-1.18V279.88h1.18Zm-110,1.968h0.99V284.6h-3.35v-0.984Zm10.24,2.755v0.983l-2.37,1.968V284.6h2.37Zm-13.78.983,2.36,1.968v0.984l-2.36,1.968-2.36-1.968v-0.984Zm9.25,2.952v0.984h-2.36v-0.984h2.36Zm41.32,1.968v1.968h-1.18v-1.968h1.18Zm4.53,1.968v0.984h-2.36v-0.984h2.36Zm-8.07.984v1.967h-3.34v-1.967h3.34Zm-33.25,1.967-2.37,1.968h-0.98v-1.968h3.35Zm27.54,1.968h-2.36v-1.968Zm18.3,0v1.968l-4.52-.984,2.36-2.952Zm36.8-1.968,1.18,4.92v0.984h-3.54l-1.18-.984-1.18.984q0-4.917,4.72-5.9h0Zm-64.34.984-2.17,1.968v-1.968h2.17Zm52.73,1.968h1.18v1.968l-1.18.984h-0.98l-1.18-.984Zm4.72,0.984v1.968h-2.36v-1.968h2.36Zm-19.48.984v1.967h-1.18v-1.967h1.18Zm11.42,0,1.18,0.984-2.36,1.967h-1.18v-2.951h2.36Zm-50.38,5.9,2.17,1.968V309.2l-4.53.984v-3.936h2.36Zm13.58,2.952h2.36v-0.984h-2.36V309.2Zm-10.23.984,2.36,1.967v1.968h-2.36l-2.36-1.968v-1.967h2.36Zm26.37,5.9h1.18l-3.55,2.952v-0.984Zm5.7,2.952h-3.34v-0.984l1.18-.984Zm3.54,2.951,3.35,0.984v0.984l-6.89.984v-1.968Zm0,5.9v0.983h-2.36v-0.983h2.36Zm-45.85,6.887v1.968h-3.54v-1.968h3.54Zm30.9,0.984v1.771h-1.18v-1.771h1.18Zm-13.78,3.738v0.984q0,1.969-6.88,3.936l-2.36-2.952V339.5l1.18-.983Zm-16.13,1.968,1.18,5.9v1.967h-1.18l-0.99-2.951h-1.18l-1.18.984-2.36-1.968v-0.984l1.18-.984q3.54,0,3.54-1.968h0.99Zm24.2,3.936h-2.36v-1.968Zm20.66-1.968v1.968h2.17l1.18-.984v1.968h-3.35l-1.18-.984v-1.968h1.18Zm-6.88,2.952v2.951h-1.18l-2.37-1.967v-0.984h3.55Zm-43.69,3.935h1.18l2.36,1.968v0.984l-2.36,2.951-3.34-.983v-2.952Zm5.71,5.9,2.36,1.968v0.984l-2.36,1.968h-0.99l-2.36-1.968v-1.968Zm4.72,7.872h1.18v2.951h-2.36l-1.18-.984Zm33.26,1.967v1.968h-2.36v-1.968h2.36Zm-18.5,1.968V370l-2.17,1.968h-3.54l2.36-4.92Zm10.43,6.887v0.984h-3.54v-1.968l1.18-.983Zm56.28,2.952q0,4.922-3.55,5.9,1.185-5.9,3.55-5.9h0Zm-31.09,1.968,1.18,0.984-2.36,1.967h-1.19v-1.967l1.19-.984h1.18Zm-32.08.984,1.18,0.984-2.36,1.967-2.36-1.967v-0.984h3.54Zm21.84,0v2.951h-3.54v-2.951h3.54Zm4.53,0.984,2.36,1.967v1.968l-1.18.984h-1.18l-2.36-1.968,1.18-.984v-1.967h1.18Zm-50.38.983v1.968l-2.36,1.968-2.36-1.968v-1.968h4.72Zm33.26,3.936,2.16,1.968-2.16,1.968-3.54-2.952V386.73h3.54Zm52.74,0,1.18,2.952v1.771l-3.55-3.739V386.73h2.37Zm-58.64.984V388.7h-2.17v-0.984h2.17Zm35.61,1.968v0.984l-3.34.787v-0.787h-2.36V388.7Zm-12.59,0,2.36,1.771v1.967h-4.72v-1.967Zm17.12,4.722h-3.35v-2.951Zm-22.83-1.967h1.18v2.951h-3.54V394.4Zm-27.55,1.967,1.18,0.984-2.36,1.968h-1.18v-1.968l1.18-.984h1.18Zm6.89,0.984h1.18v1.968h-3.54Zm37.78,1.968v1.968h-3.34v-2.952l1.18-.984Zm-47.03,2.952v0.984l-3.34.983v-0.983h-2.36v-1.968Zm75.76-.984v1.968h-1.18v-1.968h1.18Zm-28.73.984h1.18v1.967l-1.18.984h-1.18l-0.98-.984Zm14.96,0.984h2.36v-0.984h-2.36v0.984Zm-57.26,3.935h-3.55v-2.952Zm62.96,0,1.18,0.984,2.37-1.968v-1.968h-3.55v2.952Zm-2.16,3.936q-9.255,0-9.25,1.967v0.984l1.18,0.984-3.54,3.936v0.984h2.36l10.23-.984h1.18l-1.18-2.952,2.36-1.968,3.55,2.952v0.984q10.23-.591,10.23-2.952v-3.935l-2.36-1.968h-2.17v1.968h-2.36V407.2h-2.36v3.935l-5.71-.984v-0.983l1.18-.984V407.2h-1.18Zm14.76,0.983,1.18,0.984-2.17,1.968h-1.18v-2.952h2.17Zm-61.79.984V413.1h-1.18V411.13h1.18Zm44.67,0.984v2.952h-4.53v-2.952h4.53Zm128.3-197.564-1.18,1.18v1.181l1.18,1.181h0.98l1.18-1.181V215.73l-1.18-1.18h-0.98Zm34.83,13.184v1.181l0.98,1.18,2.17-2.361v-1.378l-0.99-1.18Zm-65.53,3.542-3.15-1.181h-1.18l-0.98,1.181-4.53-1.181-2.16,2.362q-5.325,0-5.32,2.361h-1.18l-0.98-1.181h-2.17l0.99,3.542v1.181L1749.15,236l-1.18,1.18v-2.361l-10.82,3.542q-29.52,19.287-29.52,45.259,0,2.757,18.69,3.542,0-4.724,2.17-4.723h0.98v1.181l-0.98,1.18q0,4.331,40.34,7.084,0.975-8.458,19.48-24.99l3.34,3.542q12,0,12.01-7.084l12,4.722q9.84,12.6,9.84,22.63l-1.18,3.542,2.16,2.361-2.16,2.361c-1.45,0-2.17-1.18-2.17-3.542q-5.895,0-24,8.462v1.18l1.18,1.181,3.15-1.181q3.33,0,4.52,4.723l-2.16,2.361-4.53-1.18-3.15,3.542v1.18l0.99,1.181q-7.68,0-17.32,10.626h-5.51q-4.125-17.711-7.67-17.71c0,3.148-.73,4.723-2.17,4.723h-2.16l-1.18-3.542q-18.51,3.938-18.5,5.9-6.5,0-6.49,7.084h-2.17l-1.18-4.723-7.48,3.542-3.34-1.18-1.18,1.18,1.18,1.181q-21.84,17.317-21.84,45.259,0,15.546,9.83,29.713h2.17l1.18-1.18q0-3.543,2.16-3.542h0.99q2.16,0,2.16,4.722l32.86,9.642,3.15-2.361v-2.558h1.18v2.558h4.33l5.51-1.378c1.44,2.494,3.22,3.739,5.32,3.739v1.181l-6.5,2.361q0,3.543,26.17,5.9,5.5,0,7.68-5.9l3.15,3.542q7.08-.983,25.18-17.906h2.17q0,15.938,14.17,20.268h52.34q-6.495-20.856-6.5-28.533V372.759l-1.18-11.807,1.18-7.281v-1.18l-1.18-1.181h1.18l-1.18-12.987,1.18-3.542-1.18-1.181,1.18-1.181v-1.18l-1.18-1.181,1.18-1.377V327.5l-2.16-3.542v-1.181l2.16-2.361-1.18-1.181,1.18-1.18-1.18-3.542v-1.181l1.18-1.181q0-3.541-2.16-3.542l0.98-6.1v-7.084q0-22.626-5.31-22.629l0.99-3.542-5.51-14.168h-3.15l-2.17,2.361v2.362l0.99,1.18h1.18l0.98-1.18h1.18l0.99,1.18-2.17,2.362h-0.98l-1.18-1.181v3.542l1.18,1.181-2.17,2.361h-1.18q-2.16-14.167-10.82-14.168v1.181l2.16,3.542v1.18l-2.16,2.362q-4.335-1.965-4.33-7.084H1856l-1.18,1.18v-2.361h2.36l0.98,1.181,2.17-8.462-6.5-2.361h-1.18l-0.98,1.181c-0.39-1.836-3.35-3.8-8.85-5.9h-0.99l-1.18,1.181q-4.125-4.724-8.66-5.9h-0.98l-1.18,1.18-4.33-3.542L1823.33,236h-1.18l-0.98-1.181h-1.18L1819.01,236l0.98,1.18-0.98,7.084,2.16,4.723h-2.16q0-4.326-4.53-7.084h-6.49c0-3.149-1.06-4.723-3.15-4.723v2.362l-1.18-1.181h-1.18l-0.99,1.181h-3.34V238.36l2.16-2.361h2.17v-5.9l-2.17-2.361h-2.16q0,5.313-7.68,10.626-3.15,0-3.15-2.361h4.33v-1.181q-2.55,0-7.67-5.9l-2.17,2.361v1.181h3.35v1.18l-1.18,1.181-2.17-2.361-0.98,1.18h-2.16v-1.18h2.16v-1.181l-2.16-3.542q-4.53,1.771-4.53,3.542h0Zm17.51-2.361,2.17,2.361,2.16-2.361v-1.181h-4.33v1.181Zm51.17,2.361h2.36v-2.361h-2.36v2.361Zm-65.33,1.181-2.17,4.722h-2.16l-5.51-1.18-0.99,1.18v-2.361h7.48v-2.361h3.35Zm41.52,1.18h2.16v-2.361h-4.53Zm-6.7,1.181h2.17v-2.361Zm-32.66,0v2.361h-0.98v-2.361h0.98Zm6.49,0v2.361h-0.98v-2.361h0.98ZM1797.16,236v2.361H1795Zm38.18,4.722v2.362h-1.18v-2.362h1.18Zm-5.51,2.362v2.361h-1.18v-2.361h1.18Zm7.67,1.18v1.181h-4.33v-1.181h4.33Zm-74.18,2.362h2.16l2.17,2.361v3.542l-3.35,1.377-3.15-3.738v-1.181Zm-15.35,1.18v2.362l-2.17,2.361-2.16-2.361v-2.362h4.33Zm-10.82,1.181v1.181h-2.17v-1.181h2.17Zm-8.66,2.361,2.16,2.558v2.362l-1.18,1.18-3.15-1.18v-2.362Zm88.15,1.181v1.377h-2.16v-1.377h2.16Zm-19.48,1.377,5.32,2.362v1.18c0,3.936-1.45,6.3-4.33,7.084q-5.325-.783-5.32-3.542v-3.542Zm50.18,2.362,0.98-1.181h1.19l0.98,3.542v1.181h-3.15l-1.18-3.542h1.18Zm-89.53,3.542v5.9l-3.15,1.181c-2.23,0-3.35-.788-3.35-2.362V262.17l2.17-3.542Zm66.51,2.361h2.16v3.542l-0.98,1.181-3.35-2.362Zm-63.17,2.361h0.99l5.51,1.181v5.9l-3.35,3.542h-2.16l-4.33-3.542c0.78-4.722,1.9-7.084,3.34-7.084h0Zm97.01,1.181v3.542h-3.34v-3.542h3.34Zm19.68,1.181,2.17,2.361v2.361l-5.51-1.18Zm-96.03,3.542-2.16,2.361h-2.16v-3.542l1.18-1.181Zm54.51,2.361h2.17v3.542l-0.99,1.181-3.34-1.181v-1.181Zm-95.83,1.181,2.17,2.361v3.739l-3.35,1.18-3.34-4.919h1.18v-2.361h3.34Zm138.34,0c0,4.067,1.5,6.1,4.52,6.1l-2.36,4.722h-3.15l-5.51,1.181-3.34-3.542,1.18-3.542q5.5,0,5.51-4.919h3.15Zm-42.51,6.1,1.18,1.18v1.181l-1.18,1.181-2.16-2.362v-1.18h2.16Zm-92.68,1.18h1.18l2.16,2.362v3.542h-3.34l-2.17-2.362v-1.18Zm103.7,2.362h9.84q11.8,1.577,11.81,9.445l6.69,2.361-2.17,4.723q-7.665,0-7.67,6.1l4.33,2.361-1.18,5.9h-3.15l-2.17-2.362V309.79h-1.18l-12.98,10.626h-3.35q-5.505-2.163-6.49-22.629l0.98-1.181-4.33-4.723v-2.361l1.18-1.181,3.15,1.181-0.98,1.181v1.18l0.98,1.181Zm37,2.361v1.181q-2.37,7.083-8.66,7.084l4.33-8.265h4.33Zm2.16,11.807h-2.16v-2.362Zm-139.52,3.542v1.18l2.17,2.558,2.16-2.558v-1.18l-2.16-2.362Zm140.7,0v3.738h-2.16q0,7.085-4.53,8.265h-0.98l0.98-8.265q3.345,0,3.35-3.738h3.34Zm-176.71,6.1h3.35v-1.181l-2.36-2.361h-0.99v3.542Zm-20.66,0v2.361l2.17,3.542,0.98-1.181h1.18l0.99,1.181h2.16l2.36-2.361V309.79q0-1.965-7.67-4.723Zm111.18,10.626h0.99l1.18,1.18-1.18,5.9h-2.17l-2.16-2.362V321.6Zm24.99,2.361h3.35v3.542h-5.51v-1.181Zm9.84,0,1.18,1.181-2.16,2.361h-1.18V321.6l1.18-1.181h0.98Zm-44.67,1.181,2.17,2.361v2.361l-3.35,1.181v-1.181l-0.98-1.18V321.6h2.16Zm90.52,1.18h2.17v1.181l-2.17,4.723h-3.34v-2.362Zm-123.18,3.542,2.16,2.362v2.558h-2.16l-2.17-2.558v-2.362h2.17Zm98.19,10.823q-4.53.591-4.53,3.542v1.181l1.18,1.18h-1.18q-6.5-2.951-6.49-10.626c1.05,0,2.16-1.638,3.35-4.919q4.9,0,7.67,9.642h0Zm-89.53-8.461v2.558l-0.99,1.18-2.36-2.361v-1.377h3.35Zm34.83,0,1.18,7.28q8.055,0,19.67-7.28h2.17v24.99l2.16,3.739v2.361h-3.34l-0.99-1.18q-11.415,26.172-41.52,26.171l-9.83-8.461-8.66,3.739v-1.378l-1.18-1.181,6.69-3.542-2.17-10.626,0.99-1.18v-2.362h-0.99l-4.52,3.542h-3.15l-3.35-2.361,2.17-7.281q5.895,0,8.85-3.542l5.32,1.181,6.69-5.9q20.07-6.687,21.64-9.446v-1.18l-2.16-2.362,1.18-3.738h3.15Zm-67.5,6.1h2.17q9.825,1.969,9.83,4.722v1.181l-2.16,3.542-1.18-1.181-5.51,1.181q-3.54,0-5.31-5.9,0-3.543,2.16-3.542h0Zm26.17,2.361h2.17l2.16,2.361-3.34,9.446-5.32-5.9v-1.18Zm112.36,9.445h-1.18l-0.98,1.181h-2.36l-3.15-2.361,2.16-5.9q4.335,0,5.51,7.084h0Zm-122.2-1.18,2.17,2.361-2.17,2.361h-3.34v-4.722h3.34Zm81.86,1.18h2.17v3.542h-3.35l-0.98-1.18Zm10.83,3.542-2.17,2.362v-2.362H1844Zm31.68,4.92q4.9,4.722,7.67,4.722v2.362l-7.67,7.084h-5.51c-1.32,0-2.43-1.968-3.35-5.9h-0.98l-1.18,1.181h-2.17v-2.361q8.865-7.084,13.19-7.084h0Zm-43.69,1.18v2.362h-2.16v-2.362h2.16Zm-122.2,2.362h2.17v3.542l-0.99,1.18-3.34-1.18v-1.181Zm128.7,1.18v2.362h-2.17v-2.362h2.17Zm-151.52,5.9,1.18,1.18,2.16-2.361v-1.181h-3.34v2.362Zm53.52,1.18h2.17l2.16,2.362v1.18l-2.16,3.542q-4.53-1.77-4.53-3.542v-1.18Zm-17.51,1.181,2.16,2.361v1.181h-4.33v-3.542h2.17Zm136.36,0,0.99,1.181-2.17,2.361H1856v-3.542h3.34Zm-145.02,1.181v1.18h-2.36v-1.18h2.36Zm118.85,0,0.99,1.18-3.15,3.542h-1.18V370.4Zm7.48,1.18v1.181l-0.98,1.181-2.17-2.362h3.15Zm24.01,1.181v1.181l-2.17,2.361h-0.98v-3.542h3.15Zm23.02,7.084-3.34,3.739v-4.92l1.18-1.18Zm-157.03,1.378h2.17l2.16,2.361v3.542l-4.33,1.181-2.16-3.542V382.4Zm27.16,2.361v2.361h-2.17Zm12,0,1.18,1.181-1.18,3.542v1.18l7.68-4.722h1.18v2.361q-8.865,2.759-8.86,5.9h-0.98l-1.18-1.18c-1.45,0-2.17,1.18-2.17,3.542h-2.16v-3.542l-3.35,1.18v2.362l1.18,1.18-1.18,1.181v1.181l1.18,1.18q-1.965,0-2.16,4.723h-1.18v-3.542h-3.15l-1.18,1.181,2.16-8.265-0.98-3.542h6.49Zm-24.99,5.9h-2.16v-2.361Zm124.17-1.18h1.18v2.361l-1.18,1.181H1868l-1.18-1.181Zm-116.5,1.18v2.362h-2.36Zm106.85,2.362v2.361l-2.16,2.361v-2.361Zm-53.52,11.806H1807v1.181l-8.85,2.558h-2.17v-1.378ZM1795,403.653v3.739h-2.17v-3.739H1795Zm15.15,0v2.558h-0.98v-2.558h0.98Zm-34.83,1.18v2.559h-1.18v-2.559h1.18Zm12.99,1.378v2.361h-0.99v-2.361h0.99Zm86.19,0v2.361l-2.17-2.361h2.17Zm1.18,3.542,3.15,2.361-0.99,3.542h-4.33v-3.542Zm6.49,0v2.361l-2.16-2.361h2.16Z"/>
</svg>
